<svg xmlns="http://www.w3.org/2000/svg" width="96" height="124"><style>.arrows{fill:#000;stroke:none}.zoom{fill:none;stroke:#888;stroke-width:2;stroke-linecap:round}</style><path fill="none" d="M0 0h96v124H0z"/><path class="arrows" d="M13 1.5v13L1.74 8zM17.5 3h13L24 14.26zM35 1.5v13L46.26 8z"/><g class="selected"><path class="arrows" d="M13 17.5v13L1.74 24zm4.5 1.5h13L24 30.26zM35 17.5v13L46.26 24z" fill="#fff"/></g><text x="55.5" y="28" font-family="sans-serif" font-size="10pt" text-anchor="middle">✓</text><g fill="#888"><path d="M2 41v6h42v-6H33.5l-3-3h-15l-3 3zm3 9h36v20H5z"/><rect width="36" height="42" x="5" y="50" rx="4" ry="4"/></g><g class="zoom"><circle r="11.5" cx="16" cy="108"/><circle r="4.3" cx="16" cy="108" class="center" fill="#888" stroke-width="0"/><path d="M28 108h3m-30 0h3m12 12v3m0-30v3"/></g><g class="zoom"><circle r="15" cx="48" cy="108"/><path d="M48 101.6v12.8m-6.4-6.4h12.8"/></g><g class="zoom"><circle r="15" cx="80" cy="108"/><path d="M73.6 108h12.8"/></g></svg>