<?xml version="1.0" encoding="utf-8"?>
<!-- Generator: Adobe Illustrator 22.1.0, SVG Export Plug-In . SVG Version: 6.00 Build 0)  -->
<svg version="1.1" id="Layer_1" xmlns="http://www.w3.org/2000/svg" xmlns:xlink="http://www.w3.org/1999/xlink" x="0px" y="0px"
	 width="800px" height="600px" viewBox="0 0 800 600" style="enable-background:new 0 0 800 600;" xml:space="preserve">
<style type="text/css">
	.st0{fill:#99B2BF;}
	.st1{fill:#A6C3D1;}
	.st2{fill:#C8D4DB;}
	.st3{fill:#CDD9E0;}
	.st4{fill:#D6DFE6;}
	.st5{fill:#854F25;}
	.st6{clip-path:url(#SVGID_2_);}
	.st7{fill:#65A665;}
	.st8{fill:#72B873;}
	.st9{clip-path:url(#SVGID_4_);fill:#72B873;}
	.st10{clip-path:url(#SVGID_6_);fill:#72B873;}
	.st11{clip-path:url(#SVGID_8_);}
	.st12{fill:#81CC81;}
	.st13{fill:#876E6D;}
	.st14{fill:#A18382;}
	.st15{fill:#875858;}
	.st16{fill:#7A6562;}
	.st17{fill:#AD7171;}
	.st18{fill:#DB963F;}
	.st19{fill:#F2B05F;}
	.st20{fill:#BD7A4A;}
	.st21{fill:#94633F;}
	.st22{fill:#A66F47;}
	.st23{fill:#CC8450;}
	.st24{fill:#62D663;}
	.st25{fill:#BFB19E;}
	.st26{fill:#D9C8B3;}
	.st27{clip-path:url(#SVGID_10_);}
	.st28{clip-path:url(#SVGID_12_);}
	.st29{clip-path:url(#SVGID_14_);fill:none;stroke:#D17C3A;stroke-width:6;stroke-miterlimit:10;}
	.st30{clip-path:url(#SVGID_16_);}
	.st31{fill:none;stroke:#D17C3A;stroke-width:8;stroke-miterlimit:10;}
	.st32{fill:#679C68;}
	.st33{clip-path:url(#SVGID_18_);}
	.st34{clip-path:url(#SVGID_20_);}
	.st35{clip-path:url(#SVGID_22_);}
	.st36{clip-path:url(#SVGID_24_);fill:none;stroke:#D17C3A;stroke-width:6;stroke-miterlimit:10;}
	.st37{clip-path:url(#SVGID_26_);}
	.st38{clip-path:url(#SVGID_28_);}
</style>
<g id="Layer_1_1_">
	<g>
		<g id="XMLID_7_">
			<g>
				<rect class="st0" width="800" height="600"/>
				<path class="st1" d="M250.5,58.1h-8.1c0.1-0.5,0.1-1,0.1-1.4c0-5.6-4.5-10.1-10.1-10.1c-0.3,0-0.6,0-0.9,0
					c-3.1-8-10.9-13.6-20-13.6c-11.8,0-21.4,9.6-21.4,21.4c0,1.2,0.1,2.4,0.3,3.6H178c-1.3,0-2.4,0.5-3.3,1.4
					c-0.8,0.8-1.3,2-1.3,3.3h18.3h32.7h7h9.1h14.7C255.1,60.2,253.1,58.1,250.5,58.1z"/>
				<path class="st1" d="M357.3,97.4h19.2c-0.4-1.1-0.6-2.3-0.6-3.6c0-6.2,5.1-11.3,11.3-11.3c2.5,0,4.7,0.8,6.6,2.1
					c2.2-10.3,11.3-18.1,22.3-18.1c8.5,0,15.9,4.7,19.8,11.6l0,0c1.4-0.6,2.9-0.9,4.5-0.9c6,0,10.8,4.6,11.4,10.4
					c0.7-0.2,1.4-0.4,2.2-0.4c3.9,0,7.1,3.2,7.1,7.1c0,1.1-0.3,2.2-0.7,3.1h3.5c1.5,0,2.9,0.6,3.9,1.6s1.6,2.4,1.6,3.9h-35h-36.7
					H394h-13.5h-28.7C351.8,99.9,354.3,97.4,357.3,97.4z"/>
				<rect y="159.7" class="st2" width="800" height="54.6"/>
				<rect y="167.5" class="st3" width="800" height="39"/>
				<rect x="118.8" class="st2" width="11.1" height="600"/>
				<path class="st4" d="M130,220.4h-11.2c-1.8,0-3.3-1.5-3.3-3.3v-60.3c0-1.8,1.5-3.3,3.3-3.3H130c1.8,0,3.3,1.5,3.3,3.3v60.3
					C133.2,218.9,131.8,220.4,130,220.4z"/>
				<rect x="392.4" class="st2" width="11.1" height="600"/>
				<rect x="666" class="st2" width="11.1" height="600"/>
				<path class="st5" d="M593.4,417.7h-29.2c-1.3,0-2.3,1-2.3,2.3l0,0h31.5V417.7z"/>
				<g>
					<g>
						<defs>
							<rect id="SVGID_1_" y="455.9" width="177.5" height="144.1"/>
						</defs>
						<clipPath id="SVGID_2_">
							<use xlink:href="#SVGID_1_"  style="overflow:visible;"/>
						</clipPath>
						<g class="st6">
							<circle class="st7" cx="21.7" cy="562.4" r="54.5"/>
							
								<ellipse transform="matrix(3.327794e-02 -0.9994 0.9994 3.327794e-02 -510.5118 653.0071)" class="st7" cx="82.3" cy="590.4" rx="33.2" ry="33.2"/>
							<circle class="st7" cx="0" cy="513.8" r="25.8"/>
							
								<ellipse transform="matrix(0.9985 -5.530038e-02 5.530038e-02 0.9985 -28.5815 3.1097)" class="st7" cx="41.9" cy="518" rx="25.8" ry="25.8"/>
							<path class="st7" d="M108.3,590.5h39.1c5.3,0,9.5,4.3,9.5,9.5l0,0h-48.7v-9.5H108.3z"/>
							<circle class="st7" cx="75.4" cy="549" r="15.6"/>
							<circle class="st8" cx="69.4" cy="531" r="14.4"/>
							
								<ellipse transform="matrix(1 -4.854201e-03 4.854201e-03 1 -2.7072 1.919158e-02)" class="st8" cx="2.6" cy="557.7" rx="16.4" ry="16.4"/>
							
								<ellipse transform="matrix(0.9999 -1.162555e-02 1.162555e-02 0.9999 -6.8923 0.1168)" class="st8" cx="6.6" cy="592.9" rx="27.8" ry="27.8"/>
							<circle class="st8" cx="35.5" cy="597.5" r="17"/>
							<path class="st8" d="M34.9,591.9h20.4c4.5,0,8.1,3.6,8.1,8.1l0,0H34.9V591.9z"/>
						</g>
					</g>
					<g>
						<defs>
							<rect id="SVGID_3_" y="455.9" width="177.5" height="144.1"/>
						</defs>
						<clipPath id="SVGID_4_">
							<use xlink:href="#SVGID_3_"  style="overflow:visible;"/>
						</clipPath>
						<path class="st9" d="M24,496.1c1.2,2.8,0.8,6-0.8,8.4c-2.8-0.5-5.4-2.4-6.6-5.2c-1.2-2.8-0.8-6,0.8-8.4
							C20.3,491.3,22.8,493.2,24,496.1z"/>
					</g>
					<g>
						<defs>
							<rect id="SVGID_5_" y="455.9" width="177.5" height="144.1"/>
						</defs>
						<clipPath id="SVGID_6_">
							<use xlink:href="#SVGID_5_"  style="overflow:visible;"/>
						</clipPath>
						<path class="st10" d="M34.9,510.9c-2.8,1.4-5.9,1.2-8.4-0.2c0.3-2.9,2-5.5,4.8-6.9c2.7-1.4,5.9-1.2,8.4,0.2
							C39.3,506.8,37.6,509.5,34.9,510.9z"/>
					</g>
				</g>
				<g>
					<g>
						<defs>
							<rect id="SVGID_7_" x="487.1" y="442.4" width="312.9" height="157.6"/>
						</defs>
						<clipPath id="SVGID_8_">
							<use xlink:href="#SVGID_7_"  style="overflow:visible;"/>
						</clipPath>
						<g class="st11">
							<circle class="st7" cx="782.8" cy="600" r="71.6"/>
							<circle class="st7" cx="692.1" cy="600" r="50.7"/>
							<circle class="st7" cx="800" cy="522.7" r="37.6"/>
							<circle class="st7" cx="762.4" cy="540.1" r="26.6"/>
							<circle class="st7" cx="641.4" cy="600" r="26.6"/>
							<circle class="st7" cx="711.2" cy="549.3" r="26.6"/>
							<path class="st7" d="M668.1,586.9H509.5c-7.2,0-13.1,5.9-13.1,13.1l0,0h171.7V586.9z"/>
							<circle class="st8" cx="800.6" cy="488.5" r="16.1"/>
							<circle class="st8" cx="784.5" cy="593.5" r="38.8"/>
							<circle class="st8" cx="745.7" cy="593.5" r="26.7"/>
							<circle class="st8" cx="679.3" cy="593.5" r="17.5"/>
							<path class="st12" d="M760.3,518.9c-1.8,3.8-5.3,6.2-9.2,6.7c-2-3.3-2.4-7.6-0.6-11.4c1.8-3.8,5.3-6.2,9.2-6.7
								C761.7,510.9,762.1,515.1,760.3,518.9z"/>
							<path class="st12" d="M740.4,503.1c2.1,3.6,2.1,7.9,0.4,11.4c-3.9-0.2-7.6-2.3-9.7-5.9c-2.1-3.6-2.1-7.9-0.4-11.4
								C734.6,497.4,738.3,499.5,740.4,503.1z"/>
							<path class="st8" d="M678.4,555.1c-0.3,4.2-2.7,7.7-6.2,9.6c-3.1-2.4-4.9-6.2-4.6-10.4c0.3-4.2,2.7-7.7,6.1-9.6
								C676.9,547.1,678.7,550.9,678.4,555.1z"/>
						</g>
					</g>
				</g>
				<g>
					<circle class="st7" cx="454.6" cy="379.7" r="7.3"/>
					<g>
						<path class="st7" d="M468.6,381.4h-36.8c-3.1,0-5.7,2.5-5.7,5.7l0,0h42.5V381.4z"/>
						<polygon class="st13" points="424,397.7 426.7,424.7 473.6,424.7 473.6,393.9 						"/>
						<path class="st14" d="M471.1,400.1H421c-1.4,0-2.5-1.1-2.5-2.5v-8c0-1.4,1.1-2.5,2.5-2.5h50.1c1.4,0,2.5,1.1,2.5,2.5v8
							C473.6,399,472.5,400.1,471.1,400.1z"/>
					</g>
					<g>
						<g>
							<polygon class="st15" points="539.1,442.4 473.1,442.4 464,364.5 548.2,364.5 							"/>
						</g>
						<path class="st16" d="M536,459.3h-61c-1.1,0-2.1-0.7-2.6-1.7l-7-17.8c-0.7-1.8,0.6-3.6,2.6-3.6h75c1.9,0,3.2,1.9,2.6,3.6
							l-7,17.8C538.1,458.6,537.1,459.3,536,459.3z"/>
						<path class="st17" d="M553.4,371.3h-94.6c-1.5,0-2.7-1.2-2.7-2.7v-13.2c0-1.5,1.2-2.7,2.7-2.7h94.6c1.5,0,2.7,1.2,2.7,2.7
							v13.2C556.1,370.1,554.9,371.3,553.4,371.3z"/>
					</g>
					<g>
						<circle class="st7" cx="606.7" cy="379.9" r="11.7"/>
						<circle class="st7" cx="593.4" cy="365.9" r="10.9"/>
						<circle class="st7" cx="560.8" cy="381.4" r="11.7"/>
						<circle class="st7" cx="583.4" cy="379.1" r="16.6"/>
						<g>
							<polygon class="st13" points="614.3,448.8 538.3,448.8 529.2,390.8 623.4,390.8 							"/>
						</g>
						<path class="st16" d="M611.2,465.6h-70.9c-1.1,0-2.1-0.7-2.6-1.7l-7-17.8c-0.7-1.8,0.6-3.6,2.6-3.6h85c1.9,0,3.2,1.9,2.6,3.6
							l-7,17.8C613.3,464.9,612.3,465.6,611.2,465.6z"/>
						<path class="st14" d="M628.6,397.7H524.1c-1.5,0-2.7-1.2-2.7-2.7v-13.2c0-1.5,1.2-2.7,2.7-2.7h104.6c1.5,0,2.7,1.2,2.7,2.7
							V395C631.3,396.5,630.1,397.7,628.6,397.7z"/>
						<path class="st8" d="M609.3,371c-2.9,2-6.4,2.2-9.4,1c0-3.2,1.5-6.4,4.4-8.4c2.9-1.9,6.4-2.2,9.4-1
							C613.7,365.9,612.1,369,609.3,371z"/>
						<path class="st8" d="M568.9,359c0.5,2.7-0.4,5.3-2.2,7c-2.3-1-4.1-3.1-4.6-5.7c-0.5-2.7,0.4-5.3,2.2-7
							C566.6,354.2,568.4,356.3,568.9,359z"/>
						<path class="st8" d="M430.9,376.3c-1.4-1.3-2-3.1-1.7-4.8c1.7-0.4,3.6,0,5,1.2c1.4,1.3,2,3.1,1.7,4.8
							C434.2,378,432.3,377.6,430.9,376.3z"/>
					</g>
					<g>
						<g>
							<rect x="173.4" y="390.5" class="st18" width="14.9" height="25.4"/>
							<rect x="350.8" y="390.5" class="st18" width="14.9" height="25.4"/>
						</g>
						<rect x="165.7" y="411.9" class="st19" width="207.7" height="8"/>
						<rect x="165.7" y="383.4" class="st19" width="207.7" height="21"/>
					</g>
					<path class="st20" d="M677.5,491.8h-555c-3.4,0-6.1-2.7-6.1-6.1V426c0-3.4,2.7-6.1,6.1-6.1h555c3.4,0,6.1,2.7,6.1,6.1v59.7
						C683.6,489.1,680.9,491.8,677.5,491.8z"/>
					<path class="st21" d="M631.2,505.4H171.6c-7.5,0-13.6-6.1-13.6-13.6l0,0h486.9l0,0C644.9,499.3,638.8,505.4,631.2,505.4z"/>
					<g>
						<rect x="182" y="505.4" class="st22" width="39.9" height="94.6"/>
						<rect x="578.1" y="505.4" class="st22" width="39.9" height="94.6"/>
					</g>
					<rect x="116.4" y="433.7" class="st23" width="567.2" height="5.7"/>
					<path class="st5" d="M637.9,414.6h-48.8c-3,0-5.4,2.4-5.4,5.4l0,0h59.5l0,0C643.3,417,640.9,414.6,637.9,414.6z"/>
					<g>
						<circle class="st5" cx="639.6" cy="407.9" r="1"/>
						<circle class="st5" cx="645.6" cy="411.7" r="1.3"/>
						<circle class="st5" cx="642.4" cy="403.7" r="0.7"/>
					</g>
					<g>
						<path class="st8" d="M583.4,361.9v-4c0-2.2,1.8-4,4-4l0,0c2.2,0,4,1.8,4,4l0,0c0,2.2-1.8,4-4,4H583.4z"/>
						<path class="st24" d="M583.4,361.9h-4c-2.2,0-4-1.8-4-4l0,0c0-2.2,1.8-4,4-4l0,0c2.2,0,4,1.8,4,4V361.9z"/>
						<path class="st8" d="M583.4,361.9v4c0,2.2-1.8,4-4,4l0,0c-2.2,0-4-1.8-4-4l0,0c0-2.2,1.8-4,4-4H583.4z"/>
						<path class="st24" d="M583.4,361.9h4c2.2,0,4,1.8,4,4l0,0c0,2.2-1.8,4-4,4l0,0c-2.2,0-4-1.8-4-4V361.9z"/>
					</g>
					<circle class="st8" cx="443.5" cy="379.1" r="5.3"/>
				</g>
				<g>
					<path class="st25" d="M800,315.5c0,0-90.5-288.1-398-315.5h398V315.5z"/>
					<path class="st26" d="M402,0c307.4,27.4,398,315.5,398,315.5v-36.3C771.2,212.8,679.3,44.9,472.6,0H402z"/>
				</g>
				<g>
					<path class="st25" d="M0,315.5C0,315.5,90.5,27.4,398,0H0V315.5z"/>
					<path class="st26" d="M398,0C90.5,27.4,0,315.5,0,315.5v-36.3C28.8,212.8,120.7,44.9,327.4,0H398z"/>
				</g>
				<path class="st4" d="M403.6,220.4h-11.2c-1.8,0-3.3-1.5-3.3-3.3v-60.3c0-1.8,1.5-3.3,3.3-3.3h11.2c1.8,0,3.3,1.5,3.3,3.3v60.3
					C406.8,218.9,405.4,220.4,403.6,220.4z"/>
				<path class="st4" d="M677.1,220.4h-11.2c-1.8,0-3.3-1.5-3.3-3.3v-60.3c0-1.8,1.5-3.3,3.3-3.3h11.2c1.8,0,3.3,1.5,3.3,3.3v60.3
					C680.4,218.9,678.9,220.4,677.1,220.4z"/>
				<g>
					<g>
						<defs>
							<rect id="SVGID_9_" x="308.5" width="491.5" height="491.8"/>
						</defs>
						<clipPath id="SVGID_10_">
							<use xlink:href="#SVGID_9_"  style="overflow:visible;"/>
						</clipPath>
						<g class="st27">
							<path class="st8" d="M437.8,28.9c2,3.5,2,7.6,0.3,10.9c-3.7-0.2-7.3-2.3-9.3-5.8s-2-7.6-0.3-10.9
								C432.3,23.3,435.8,25.4,437.8,28.9z"/>
						</g>
					</g>
					<g>
						<defs>
							<rect id="SVGID_11_" x="308.5" width="491.5" height="491.8"/>
						</defs>
						<clipPath id="SVGID_12_">
							<use xlink:href="#SVGID_11_"  style="overflow:visible;"/>
						</clipPath>
						<g class="st28">
							<path class="st7" d="M483.3,35c3.8,3.5,5.3,8.6,4.5,13.3c-4.7,1.1-9.8,0-13.6-3.5c-3.8-3.5-5.3-8.6-4.5-13.3
								C474.4,30.4,479.5,31.5,483.3,35z"/>
						</g>
					</g>
					<g>
						<defs>
							<rect id="SVGID_13_" x="308.5" width="491.5" height="491.8"/>
						</defs>
						<clipPath id="SVGID_14_">
							<use xlink:href="#SVGID_13_"  style="overflow:visible;"/>
						</clipPath>
						<path class="st29" d="M383.2-6.3l25.6,25.6C450.5,61,518.2,61,560,19.3l11.7-11.7"/>
					</g>
					<g>
						<defs>
							<rect id="SVGID_15_" x="308.5" width="491.5" height="491.8"/>
						</defs>
						<clipPath id="SVGID_16_">
							<use xlink:href="#SVGID_15_"  style="overflow:visible;"/>
						</clipPath>
						<g class="st30">
							<g>
								<path class="st7" d="M714.9,96.8c0.4,4.6-1.6,8.9-4.9,11.6c-3.8-2-6.5-5.9-7-10.5c-0.4-4.6,1.6-8.9,4.9-11.6
									C711.7,88.4,714.4,92.2,714.9,96.8z"/>
								<path class="st31" d="M673.2,40.8L673.2,40.8c0,46,37.3,83.3,83.3,83.3h26.6"/>
								<circle class="st7" cx="814.1" cy="64.8" r="52.6"/>
								<circle class="st7" cx="758.3" cy="16.9" r="45.3"/>
								<circle class="st32" cx="574.3" cy="-3.2" r="33"/>
								<circle class="st7" cx="666.8" cy="-28.4" r="82"/>
								<path class="st8" d="M709.8,116.7c4.8-1.9,10.1-1,14,1.8c-1,4.7-4.3,8.8-9.2,10.7c-4.8,1.9-10,1-14-1.8
									C701.7,122.7,705,118.5,709.8,116.7z"/>
								<path class="st8" d="M489.3,55c2.8-4.3,7.6-6.7,12.4-6.7c1.9,4.4,1.7,9.7-1.2,14c-2.8,4.3-7.5,6.7-12.4,6.7
									C486.3,64.6,486.5,59.4,489.3,55z"/>
								<path class="st12" d="M663,54.9c2.3-2.9,5.7-4.3,9.1-4c1.1,3.2,0.6,6.9-1.7,9.8c-2.3,2.9-5.7,4.3-9.1,4
									C660.3,61.5,660.8,57.8,663,54.9z"/>
								<path class="st12" d="M684.6,52c-3.1-2.3-4.6-6-4.4-9.6c3.4-1.2,7.3-0.7,10.4,1.6c3.1,2.3,4.6,6,4.4,9.6
									C691.7,54.8,687.7,54.4,684.6,52z"/>
								<path class="st12" d="M634.3,47.6c2.6-2.9,6.3-4.1,9.9-3.6c0.9,3.5,0.1,7.4-2.4,10.3c-2.6,2.9-6.3,4.1-9.9,3.6
									C630.9,54.3,631.7,50.5,634.3,47.6z"/>
							</g>
							<g>
								<circle class="st7" cx="808.8" cy="325.1" r="62.8"/>
								<circle class="st8" cx="786.1" cy="379.3" r="27.8"/>
								<circle class="st8" cx="797.5" cy="411.7" r="12.6"/>
								<path class="st8" d="M754.9,289.6c2.5,3.7,2.8,8.3,1.1,12.1c-4.2,0-8.3-2-10.7-5.7c-2.5-3.7-2.8-8.3-1.2-12.1
									C748.3,283.9,752.4,285.9,754.9,289.6z"/>
								<circle class="st8" cx="746.5" cy="312.4" r="5.6"/>
								<circle class="st8" cx="761.1" cy="314.5" r="2.8"/>
								<circle class="st8" cx="756.3" cy="338.5" r="2.8"/>
							</g>
							<circle class="st8" cx="794" cy="129.8" r="32.5"/>
							<circle class="st8" cx="794" cy="170.7" r="17.1"/>
						</g>
					</g>
					<g>
						<defs>
							<rect id="SVGID_17_" x="308.5" width="491.5" height="491.8"/>
						</defs>
						<clipPath id="SVGID_18_">
							<use xlink:href="#SVGID_17_"  style="overflow:visible;"/>
						</clipPath>
						<g class="st33">
							<path class="st12" d="M441,43.2c3.9-1,7.8,0.1,10.6,2.5c-1.2,3.5-4.1,6.4-8,7.5c-3.9,1-7.8-0.1-10.6-2.5
								C434.2,47.1,437.1,44.2,441,43.2z"/>
						</g>
					</g>
				</g>
				<g>
					<g>
						<defs>
							<rect id="SVGID_19_" x="0" y="0" width="491.5" height="491.8"/>
						</defs>
						<clipPath id="SVGID_20_">
							<use xlink:href="#SVGID_19_"  style="overflow:visible;"/>
						</clipPath>
						<g class="st34">
							<path class="st8" d="M362.2,28.9c-2,3.5-2,7.6-0.3,10.9c3.7-0.2,7.3-2.3,9.3-5.8s2-7.6,0.3-10.9
								C367.7,23.3,364.2,25.4,362.2,28.9z"/>
						</g>
					</g>
					<g>
						<defs>
							<rect id="SVGID_21_" x="0" y="0" width="491.5" height="491.8"/>
						</defs>
						<clipPath id="SVGID_22_">
							<use xlink:href="#SVGID_21_"  style="overflow:visible;"/>
						</clipPath>
						<g class="st35">
							<path class="st7" d="M316.7,35c-3.8,3.5-5.3,8.6-4.5,13.3c4.7,1.1,9.8,0,13.6-3.5c3.8-3.5,5.3-8.6,4.5-13.3
								C325.6,30.4,320.5,31.5,316.7,35z"/>
						</g>
					</g>
					<g>
						<defs>
							<rect id="SVGID_23_" x="0" y="0" width="491.5" height="491.8"/>
						</defs>
						<clipPath id="SVGID_24_">
							<use xlink:href="#SVGID_23_"  style="overflow:visible;"/>
						</clipPath>
						<path class="st36" d="M416.8-6.3l-25.6,25.6C349.5,61,281.8,61,240.1,19.3L228.4,7.6"/>
					</g>
					<g>
						<defs>
							<rect id="SVGID_25_" x="0" y="0" width="491.5" height="491.8"/>
						</defs>
						<clipPath id="SVGID_26_">
							<use xlink:href="#SVGID_25_"  style="overflow:visible;"/>
						</clipPath>
						<g class="st37">
							<g>
								<path class="st7" d="M85.1,96.8c-0.4,4.6,1.6,8.9,4.9,11.6c3.8-2,6.5-5.9,7-10.5c0.4-4.6-1.6-8.9-4.9-11.6
									C88.3,88.4,85.6,92.2,85.1,96.8z"/>
								<path class="st31" d="M126.8,40.8L126.8,40.8c0,46-37.3,83.3-83.3,83.3H16.8"/>
								<circle class="st7" cx="-14.1" cy="64.8" r="52.6"/>
								<circle class="st7" cx="41.7" cy="16.9" r="45.3"/>
								
									<ellipse transform="matrix(0.1557 -0.9878 0.9878 0.1557 193.7239 220.2463)" class="st32" cx="225.7" cy="-3.2" rx="33" ry="33"/>
								<circle class="st7" cx="133.2" cy="-28.4" r="82"/>
								<path class="st8" d="M90.2,116.7c-4.8-1.9-10.1-1-14,1.8c1,4.7,4.3,8.8,9.2,10.7c4.8,1.9,10,1,14-1.8
									C98.3,122.7,95,118.5,90.2,116.7z"/>
								<path class="st8" d="M310.7,55c-2.8-4.3-7.6-6.7-12.4-6.7c-1.9,4.4-1.7,9.7,1.2,14c2.8,4.3,7.5,6.7,12.4,6.7
									C313.7,64.6,313.5,59.4,310.7,55z"/>
								<path class="st12" d="M137,54.9c-2.3-2.9-5.7-4.3-9.1-4c-1.1,3.2-0.6,6.9,1.7,9.8c2.3,2.9,5.7,4.3,9.1,4
									C139.7,61.5,139.2,57.8,137,54.9z"/>
								<path class="st12" d="M115.4,52c3.1-2.3,4.6-6,4.4-9.6c-3.4-1.2-7.3-0.7-10.4,1.6s-4.6,6-4.4,9.6
									C108.3,54.8,112.3,54.4,115.4,52z"/>
								<path class="st12" d="M165.7,47.6c-2.6-2.9-6.3-4.1-9.9-3.6c-0.9,3.5-0.1,7.4,2.4,10.3c2.6,2.9,6.3,4.1,9.9,3.6
									C169.1,54.3,168.3,50.5,165.7,47.6z"/>
							</g>
							<g>
								<circle class="st7" cx="-8.8" cy="325.1" r="62.8"/>
								
									<ellipse transform="matrix(0.9997 -2.378930e-02 2.378930e-02 0.9997 -9.0193 0.438)" class="st8" cx="13.9" cy="379.3" rx="27.8" ry="27.8"/>
								<circle class="st8" cx="2.5" cy="411.7" r="12.6"/>
								<path class="st8" d="M45.1,289.6c-2.5,3.7-2.8,8.3-1.1,12.1c4.2,0,8.3-2,10.7-5.7c2.5-3.7,2.8-8.3,1.2-12.1
									C51.7,283.9,47.6,285.9,45.1,289.6z"/>
								<circle class="st8" cx="53.5" cy="312.4" r="5.6"/>
								<circle class="st8" cx="38.9" cy="314.5" r="2.8"/>
								<circle class="st8" cx="43.7" cy="338.5" r="2.8"/>
							</g>
							<circle class="st8" cx="6" cy="129.8" r="32.5"/>
							<circle class="st8" cx="6" cy="170.7" r="17.1"/>
						</g>
					</g>
					<g>
						<defs>
							<rect id="SVGID_27_" x="0" y="0" width="491.5" height="491.8"/>
						</defs>
						<clipPath id="SVGID_28_">
							<use xlink:href="#SVGID_27_"  style="overflow:visible;"/>
						</clipPath>
						<g class="st38">
							<path class="st12" d="M359,43.2c-3.9-1-7.8,0.1-10.6,2.5c1.2,3.5,4.1,6.4,8,7.5c3.9,1,7.8-0.1,10.6-2.5
								C365.8,47.1,362.9,44.2,359,43.2z"/>
						</g>
					</g>
				</g>
			</g>
		</g>
	</g>
</g>
</svg>
