<svg width="11" height="14" xmlns="http://www.w3.org/2000/svg"><path d="M7.755 13.365a1.195 1.195 0 0 1-.91-.372 1.258 1.258 0 0 1-.387-.923V1.295c0-.357.129-.664.387-.922.259-.258.562-.382.91-.372h1.79c.358-.01.66.114.91.372.248.258.372.565.372.922V12.07c0 .358-.124.665-.373.923a1.166 1.166 0 0 1-.91.372h-1.79zm-6.473 0a1.165 1.165 0 0 1-.909-.372A1.281 1.281 0 0 1 0 12.07V1.295C0 .938.124.631.373.373.621.115.925-.01 1.283 0h1.79c.357-.01.66.114.909.372.248.258.373.565.373.922V12.07c0 .358-.125.665-.373.923a1.166 1.166 0 0 1-.91.372h-1.79z" fill="#FFF" fill-rule="evenodd"/></svg>