<?xml version="1.0" encoding="utf-8"?>
<!-- Generator: Adobe Illustrator 23.0.0, SVG Export Plug-In . SVG Version: 6.00 Build 0)  -->
<svg version="1.1" id="Layer_1" xmlns="http://www.w3.org/2000/svg" xmlns:xlink="http://www.w3.org/1999/xlink" x="0px" y="0px"
	 viewBox="0 0 800 600" style="enable-background:new 0 0 800 600;" xml:space="preserve">
<style type="text/css">
	.st0{fill:#35424A;}
	.st1{fill:#303D45;}
	.st2{fill:#273238;}
	.st3{fill:#263133;}
	.st4{fill:#3C4B54;}
	.st5{fill:#EDE78E;}
	.st6{fill:#566F75;}
	.st7{fill:#44545E;}
</style>
<g>
	<g>
		<rect x="0.48" class="st0" width="800" height="600"/>
		<path class="st1" d="M3.33,452.65l8.28,1.88c0.91,0.21,1.85-0.06,2.52-0.71c2.05-2.02,6.53-6.35,8.31-7.54
			c2.12-1.41,18.34-0.27,21.36-0.04c0.32,0.02,0.63,0.11,0.93,0.24l7.31,3.36c0.54,0.25,0.98,0.66,1.26,1.18l4.25,7.87
			c0.48,0.88,1.4,1.43,2.4,1.43h16.51c0.86,0,1.68-0.41,2.19-1.1l4.11-5.54c0.35-0.47,0.54-1.04,0.54-1.63v-10.77
			c0-0.31-0.05-0.61-0.15-0.9l-4.8-13.71c-0.32-0.91-0.14-1.91,0.48-2.65l10.13-12.15c0.38-0.46,0.9-0.78,1.48-0.91l22.41-5.23
			c0.07-0.02,0.14-0.03,0.21-0.04l24.69-3.74c0.62-0.09,1.25,0.03,1.78,0.34l17.37,10.13c0.35,0.2,0.64,0.48,0.87,0.8l6.01,8.68
			c0.43,0.62,1.09,1.03,1.84,1.15l13.59,2.04c0.55,0.08,1.07,0.33,1.48,0.72l14.43,13.7c0.36,0.35,0.63,0.78,0.76,1.27l4.92,18.26
			c0.22,0.81,0.05,1.68-0.45,2.35l-8.21,10.94c-0.24,0.32-0.54,0.58-0.89,0.77l-6.82,3.67c-1.47,0.79-1.89,2.71-0.89,4.04l4.57,6.1
			c0.35,0.47,0.55,1.05,0.55,1.64v4.16c0,1.51,1.22,2.73,2.73,2.73h7.03c1.51,0,2.73-1.22,2.73-2.73V484c0-1.11,0.67-2.1,1.69-2.52
			l11.28-4.65c0.2-0.08,0.4-0.14,0.61-0.17l18.3-2.93c0.58-0.09,1.18,0,1.7,0.28l15.27,8c0.21,0.11,0.42,0.19,0.65,0.24
			c1.78,0.41,10.06,2.35,12.15,3.04c1.92,0.64,9.07,7.04,11.6,9.33c0.57,0.52,0.89,1.25,0.89,2.02v10.5v7.07
			c0,0.48-0.13,0.96-0.37,1.38l-4.25,7.29c-0.51,0.88-0.49,1.98,0.05,2.84l3.96,6.23c0.39,0.61,1,1.04,1.71,1.2l18.7,4.15
			c0.8,0.18,1.48,0.71,1.85,1.44l3.6,7.19c0.32,0.65,0.38,1.4,0.15,2.08l-6.59,19.78c-0.05,0.15-0.08,0.3-0.11,0.45l-1.29,8.37
			c-0.15,0.95,0.22,1.92,0.97,2.53l6.13,5.02c0.77,0.63,1.82,0.79,2.74,0.42l9.2-3.68c0.65-0.26,1.38-0.26,2.03,0l8.98,3.59
			c1.04,0.41,1.72,1.42,1.72,2.53v4.79c0,1.51,1.22,2.73,2.73,2.73h8.33c0.42,0,0.84,0.1,1.22,0.29l0,0
			c2.58,1.29,1.66,5.17-1.22,5.17H4.84c-1.49,0-2.71-1.2-2.73-2.69L0,455.35C-0.03,453.58,1.61,452.25,3.33,452.65z"/>
		<g>
			<path class="st2" d="M424.1,550.15l-5.73,3.1c-0.68,0.37-1.49,0.39-2.19,0.08l-2.65-1.21c-0.48-0.22-0.87-0.57-1.12-1.03
				c-0.91-1.61-3.39-5.67-6.5-8.2c-0.45-0.36-0.78-0.85-0.9-1.41l-0.89-3.93c-0.21-0.95,0.15-1.93,0.92-2.51l0.92-0.69
				c0.68-0.51,1.05-1.33,0.98-2.17l-0.31-3.77c-0.11-1.28-1.17-2.26-2.45-2.26h-1.22c-1.36,0-2.46-1.1-2.46-2.46v-0.74
				c0-0.33,0.06-0.65,0.19-0.95l1.11-2.65c0.22-0.53,0.62-0.97,1.14-1.24l2.29-1.19c0.27-0.14,0.51-0.32,0.71-0.55
				c0.85-0.96,3.18-3.67,3.18-4.17c0-0.4,0.97-2.75,1.64-4.32c0.39-0.91,1.29-1.5,2.28-1.49c1.26,0.01,2.81,0.17,3.05,0.89
				c0.22,0.67,0.99,1.76,1.64,2.61c0.6,0.78,1.6,1.14,2.56,0.9l1.69-0.42c0.57-0.14,1.07-0.48,1.41-0.96l0.47-0.66
				c0.63-0.88,1.76-1.25,2.78-0.9l2.5,0.83c0.05,0.02,0.1,0.04,0.16,0.06l6.4,2.62c0.92,0.38,1.53,1.28,1.53,2.28v3.95
				c0,0.6-0.22,1.18-0.61,1.63l-1.75,1.98c-0.57,0.65-0.76,1.55-0.5,2.38l0.85,2.67c0.23,0.71,0.77,1.28,1.47,1.55l8.3,3.16
				c0.54,0.21,1.14,0.21,1.69,0.02l0.11-0.04c1.28-0.45,2.69,0.22,3.14,1.5l0.49,1.38c0.22,0.61,0.18,1.28-0.09,1.86l-4.11,8.75
				c-0.12,0.26-0.29,0.49-0.49,0.69l-6.68,6.68c-0.63,0.63-1.54,0.87-2.39,0.63l-4.48-1.24c-0.06-0.02-0.11-0.03-0.17-0.04
				l-6.22-1.24C425.19,549.79,424.61,549.88,424.1,550.15z"/>
			<polygon class="st3" points="420.03,525.76 423.51,533.58 423.51,540.32 425.51,545.75 424.1,550.15 417.43,561.18 
				418.51,566.39 420.03,574.65 427.64,584.43 434.38,586.82 439.16,584.21 442.85,582.26 428.07,571.83 423.94,567.91 
				423.29,559.66 425.51,553.54 428.73,546.62 428.86,542.93 430.48,539.32 434.09,538.18 434.03,536.26 429.34,537.22 
				428.14,539.38 427,541.96 425.51,539.32 425.8,532.48 420.81,524.43 			"/>
		</g>
		<path class="st2" d="M310.32,597.69l0.05-0.01c0.27-0.03,0.53-0.16,0.72-0.37l8.83-9.57c0.22-0.24,0.53-0.37,0.85-0.37h8.84
			c0.08,0,0.16-0.01,0.24-0.02l8.66-1.8c0.42-0.09,0.76-0.41,0.88-0.83l1.76-6.34c0.02-0.06,0.04-0.11,0.06-0.17l3.28-7.3
			c0.15-0.32,0.42-0.56,0.77-0.65c2.42-0.61,12.35-3.28,14.97-6.57c0.21-0.26,0.54-0.4,0.87-0.4h12.95c0.17,0,0.34,0.04,0.5,0.11
			l17.64,8.44c0.18,0.09,0.34,0.22,0.45,0.38l4.96,7.09c0.24,0.34,0.65,0.53,1.07,0.49l14.93-1.49c0.11-0.01,0.23-0.04,0.33-0.08
			l11.97-5.02c0.07-0.03,0.14-0.05,0.21-0.07l7.07-1.49c0.21-0.04,0.42-0.03,0.62,0.04l17.38,6.05c0.3,0.1,0.62,0.08,0.9-0.06
			l6.91-3.46c0.34-0.17,0.57-0.49,0.63-0.87l1.39-9.37c0.06-0.42,0.35-0.77,0.75-0.92l10.68-3.91c0.33-0.12,0.69-0.09,0.99,0.09
			l5.4,3.18c0.48,0.28,1.1,0.18,1.46-0.24l4.15-4.79c0.22-0.25,0.54-0.4,0.88-0.4h4.83c0.35,0,0.69,0.16,0.91,0.44l7.54,9.43
			l2.07,2.33c0.53,0.6,1.49,0.49,1.88-0.21l3.01-5.41c0.1-0.17,0.15-0.37,0.15-0.56v-5.61c0-0.26-0.09-0.51-0.25-0.71l-9.3-11.91
			c-0.2-0.26-0.29-0.59-0.23-0.92l1.05-5.96c0.03-0.16,0.09-0.31,0.18-0.45l17.1-25.26c0.08-0.12,0.19-0.23,0.32-0.31l11.47-7.64
			c0.12-0.08,0.25-0.14,0.4-0.17l12.09-2.64c0.21-0.05,0.43-0.03,0.63,0.04l12.91,4.56c0.13,0.05,0.25,0.12,0.36,0.21l9.09,7.64
			c0.37,0.31,0.89,0.36,1.31,0.12l8.7-4.87c0.3-0.17,0.65-0.19,0.97-0.07l8.97,3.36l13.54,4.89c0.41,0.15,0.87,0.05,1.19-0.24
			l5.22-4.9c0.34-0.32,0.85-0.4,1.28-0.21l4.39,2.02c0.02,0.01,0.05,0.02,0.07,0.03l3.13,1.71c0.62,0.34,1.4,0.05,1.64-0.62
			l4.91-13.33c0.1-0.26,0.1-0.55,0-0.81l-2.99-7.84c-0.01-0.03-0.02-0.06-0.03-0.09l-2.64-9.07c-0.07-0.23-0.06-0.48,0.02-0.71
			l1.97-5.58c0.16-0.46,0.6-0.77,1.09-0.77h7.14c0.21,0,0.42-0.06,0.6-0.17l10.34-6.28c0.28-0.17,0.47-0.44,0.53-0.76l2.13-10.27
			c0.09-0.42,0.39-0.75,0.8-0.88l7.07-2.12c0.11-0.03,0.22-0.05,0.33-0.05h12.46c0.26,0,0.51,0.09,0.71,0.24l8.25,6.38
			c0.08,0.06,0.14,0.13,0.2,0.2l4.18,5.32c0.05,0.06,0.09,0.13,0.13,0.2l1.57,3.13c0.36,0.72,1.34,0.86,1.89,0.27l3.72-4
			c0.18-0.19,0.41-0.32,0.67-0.36l6.9-1.09c0.13-0.02,0.27-0.02,0.4,0.01l9.64,1.85c0.27,0.05,0.52,0.2,0.69,0.42l5.53,7
			c0.08,0.1,0.18,0.19,0.29,0.26l3.81,2.43c0.23,0.15,0.51,0.21,0.79,0.17l4.1-0.59c0.57-0.08,1-0.57,1-1.15v-4.11
			c0-0.26-0.09-0.52-0.25-0.72l-2.87-3.59c-0.02-0.02-0.04-0.05-0.05-0.07l-5.58-8.19c-0.2-0.29-0.25-0.65-0.15-0.98l1.69-5.74
			c0.08-0.28,0.06-0.58-0.08-0.85l-3.25-6.5c-0.06-0.13-0.15-0.25-0.26-0.34l-3.13-2.81c-0.39-0.35-0.49-0.91-0.26-1.38l8.61-17.21
			c0.05-0.1,0.11-0.19,0.19-0.27l5.07-5.43c0.22-0.24,0.53-0.37,0.85-0.37h8.57h6.72c0.25,0,0.5-0.08,0.7-0.23l4.12-3.09
			c0.2-0.15,0.45-0.23,0.7-0.23h4.74c0.26,0,0.51,0.09,0.71,0.24l3.11,2.42c0.09,0.07,0.16,0.15,0.23,0.23l2.86,3.93
			c0.13,0.18,0.32,0.32,0.53,0.4l10.63,4.03c0.31,0.12,0.66,0.1,0.95-0.06l7.71-4.04c0.08-0.04,0.15-0.09,0.22-0.15l7.86-6.74
			c0.21-0.18,0.48-0.28,0.75-0.28h6.13c0.1,0,0.2,0.01,0.3,0.04l9.94,2.68c0.12,0.03,0.23,0.08,0.33,0.15l11.55,7.45
			c0.33,0.21,0.53,0.58,0.53,0.97v172.62c0,0.64-0.52,1.16-1.16,1.16H310.45C309,600,308.87,597.86,310.32,597.69z"/>
		<g>
			<circle class="st4" cx="659.78" cy="156.78" r="69.96"/>
			<circle class="st5" cx="659.78" cy="156.78" r="32.05"/>
			<g>
				<circle class="st6" cx="626.42" cy="71.78" r="3.81"/>
				<circle class="st6" cx="600.22" cy="91.21" r="2.23"/>
				<circle class="st6" cx="681.89" cy="205.68" r="2.23"/>
				<circle class="st6" cx="537.12" cy="144.83" r="1.45"/>
				<circle class="st6" cx="642.8" cy="78.47" r="1.45"/>
				<circle class="st6" cx="669.83" cy="43.67" r="1.45"/>
				<circle class="st6" cx="717.97" cy="222.29" r="1.45"/>
				<circle class="st6" cx="547.36" cy="66.55" r="2.23"/>
			</g>
		</g>
		<path class="st7" d="M256.93,295.73h-7.52c0.07-0.43,0.1-0.88,0.1-1.33c0-5.14-4.17-9.3-9.3-9.3c-0.29,0-0.57,0.02-0.86,0.04
			c-2.89-7.35-10.06-12.56-18.44-12.56c-10.95,0-19.82,8.88-19.82,19.82c0,1.14,0.1,2.25,0.29,3.33h-11.42
			c-1.18,0-2.24,0.47-3.02,1.25c-0.77,0.78-1.24,1.84-1.24,3.02h16.9h30.19h6.45h8.41h13.55
			C261.19,297.65,259.29,295.73,256.93,295.73z"/>
		<path class="st7" d="M621.74,341.97h17.32c-0.34-1.01-0.52-2.1-0.52-3.22c0-5.61,4.55-10.17,10.17-10.17
			c2.23,0,4.28,0.71,5.95,1.93c1.95-9.32,10.22-16.32,20.11-16.32c7.67,0,14.36,4.2,17.89,10.43c0,0,0,0,0,0
			c1.25-0.53,2.62-0.83,4.06-0.83c5.37,0,9.78,4.1,10.27,9.34c0.63-0.21,1.31-0.33,2.01-0.33c3.52,0,6.37,2.85,6.37,6.37
			c0,1-0.24,1.94-0.65,2.79h3.19c1.37,0,2.6,0.56,3.5,1.45c0.89,0.9,1.45,2.13,1.45,3.5h-31.54h-33.1h-3.44h-12.16H616.8
			C616.8,344.19,619.01,341.97,621.74,341.97z"/>
		<path class="st7" d="M202.23,235.69H181.9c0.4-1.19,0.61-2.46,0.61-3.78c0-6.59-5.34-11.94-11.94-11.94
			c-2.62,0-5.02,0.84-6.99,2.26c-2.29-10.94-11.99-19.15-23.61-19.15c-9,0-16.85,4.93-21,12.25c0,0,0,0,0,0
			c-1.46-0.63-3.07-0.98-4.77-0.98c-6.3,0-11.47,4.81-12.05,10.97c-0.74-0.25-1.53-0.38-2.36-0.38c-4.13,0-7.48,3.35-7.48,7.48
			c0,1.17,0.28,2.28,0.76,3.27h-3.74c-1.61,0-3.05,0.65-4.1,1.7c-1.05,1.05-1.7,2.51-1.7,4.1h37.02h38.85h4.03h14.28h30.32
			C208.03,238.29,205.43,235.69,202.23,235.69z"/>
		<g>
			<path class="st7" d="M548.29,443.14h-51.57l0,0c0-2.45,1.99-4.44,4.44-4.44h42.7C546.3,438.7,548.29,440.69,548.29,443.14
				L548.29,443.14z"/>
			<path class="st7" d="M537.93,438.7h-21.77l0,0c0-3.44,2.79-6.23,6.23-6.23h9.31C535.14,432.48,537.93,435.26,537.93,438.7
				L537.93,438.7z"/>
		</g>
	</g>
</g>
</svg>
