<?xml version="1.0" encoding="utf-8"?>
<!-- Generator: Adobe Illustrator 22.1.0, SVG Export Plug-In . SVG Version: 6.00 Build 0)  -->
<svg version="1.1" id="Layer_1" xmlns="http://www.w3.org/2000/svg" xmlns:xlink="http://www.w3.org/1999/xlink" x="0px" y="0px"
	  width="2943.71" height="1474.87" viewBox="0 0 2943.71 1474.87" xml:space="preserve">
	<g id="markers">
	    <rect id="040_patterns" x="936.72" y="202.89" width="30.04" height="30.04"/>
	    <rect id="039_colorpaint" x="913.72" y="112.89" width="30.04" height="30.04"/>
	    <rect id="038_quill" x="1001.72" y="142.93" width="30.04" height="30.04"/>
	    <rect id="031_rainbow_owl" x="1929.79" y="360.68" width="30.04" height="30.04"/>
	    <rect id="030_spiders" x="2730.76" y="325.62" width="30.04" height="30.04"/>
	    <rect id="029_bludger" x="85.72" y="893.2" width="30.04" height="30.04"/>
	    <rect id="023_trolly" x="1669.74" y="1353.9" width="30.04" height="30.04"/>
	    <rect id="022_pumpkins" x="2306.13" y="425.65" width="30.04" height="30.04"/>
	    <rect id="021_car" x="2098.8" y="662.99" width="30.04" height="30.04"/>
	    <rect id="020_big_beans" x="90" y="230" width="30.04" height="30.04"/>
	    <rect id="019_goal" x="145.76" y="949.54" width="30.04" height="30.04"/>
	    <rect id="018_juice" x="160" y="150" width="30.04" height="30.04"/>
	    <rect id="016_butterbeer" x="758.72" y="233.03" width="30.04" height="30.04"/>
	    <rect id="015_beans_fly" x="69.43" y="160" width="30.04" height="30.04"/>
	    <rect id="014_junk" x="2297.76" y="234.24" width="30.04" height="30.04"/>
	    <rect id="009_accio" x="581.22" y="977.83" width="30.04" height="30.04"/>
	    <rect id="012_pack" x="675.72" y="947.78" width="30.04" height="30.04"/>
	    <rect id="011_frogs" x="1778.74" y="1353.9" width="30.04" height="30.04"/>
	    <rect id="010_bring_beans" x="180" y="230" width="30.04" height="30.04"/>
	    <rect id="006_celebration" x="509.76" y="870.78" width="30.04" height="30.04"/>
	    <rect id="004_sparks" x="2619.76" y="855.76" width="30.04" height="30.04"/>
	    <rect id="003_pygmy" x="1883.06" y="1353.9" width="30.04" height="30.04"/>
	    <rect id="001_colovaria" x="1887.79" y="291.68" width="30.04" height="30.04"/>
	</g>
	<g id="map-link">
		<rect id="diagon-alley" x="125" y="1335" width="50" height="50"/>
		<rect id="hogwarts" x="1450" y="785" width="50" height="50"/>
	</g>
</svg>
