<svg xmlns="http://www.w3.org/2000/svg" width="55" height="55" viewBox="0 0 55 55"><defs><style>.cls-1{fill:#fff;}.cls-2{fill:#fcb033;}.cls-3{fill:#d96d0d;}</style></defs><title>unlocked</title><g id="Layer_2" data-name="Layer 2"><g id="Layer_1-2" data-name="Layer 1"><circle class="cls-1" cx="27.5" cy="27.5" r="27.5"/><circle class="cls-2" cx="27.5" cy="27.5" r="22.17"/><path class="cls-3" d="M29,18l2.25,4.56,5,.73a1.69,1.69,0,0,1,.93,2.87l-3.65,3.55.86,5A1.67,1.67,0,0,1,32,36.47L27.5,34.1,23,36.47a1.67,1.67,0,0,1-2.43-1.77l.86-5-3.65-3.55a1.69,1.69,0,0,1,.93-2.87l5-.73L26,18A1.68,1.68,0,0,1,29,18Z"/></g></g></svg>