<?xml version="1.0" encoding="utf-8"?>
<!-- Generator: Adobe Illustrator 22.1.0, SVG Export Plug-In . SVG Version: 6.00 Build 0)  -->
<svg version="1.1" id="Layer_1" xmlns="http://www.w3.org/2000/svg" xmlns:xlink="http://www.w3.org/1999/xlink" x="0px" y="0px"
	 width="800px" height="600px" viewBox="0 0 800 600" style="enable-background:new 0 0 800 600;" xml:space="preserve">
<style type="text/css">
	.st0{fill:#827C75;}
	.st1{clip-path:url(#SVGID_2_);fill:#59554F;}
	.st2{clip-path:url(#SVGID_4_);fill:#664631;}
	.st3{clip-path:url(#SVGID_7_);}
	.st4{fill:#45413D;}
	.st5{fill:#736E68;}
	.st6{clip-path:url(#SVGID_9_);}
	.st7{fill:#855C3F;}
	.st8{fill:#5E432E;}
	.st9{fill:#CC9600;}
	.st10{fill:#CCAA00;}
	.st11{fill:#E6DA00;}
	.st12{fill:none;stroke:#543928;stroke-width:2.2954;stroke-miterlimit:10;}
	.st13{fill:#664631;}
	.st14{clip-path:url(#SVGID_11_);}
	.st15{clip-path:url(#SVGID_13_);}
	.st16{clip-path:url(#SVGID_15_);fill:#4D4944;}
	.st17{clip-path:url(#SVGID_17_);}
	.st18{fill:none;stroke:#69645C;stroke-width:1.5;stroke-linecap:round;stroke-miterlimit:10;}
	.st19{clip-path:url(#SVGID_19_);fill:#66615A;}
	.st20{clip-path:url(#SVGID_21_);fill:#736D65;}
	.st21{clip-path:url(#SVGID_23_);fill:#805332;}
	.st22{clip-path:url(#SVGID_25_);}
	.st23{clip-path:url(#SVGID_27_);}
	.st24{fill:#804242;}
	.st25{fill:#805332;}
	.st26{fill:#99633C;}
	.st27{fill:#66432B;}
	.st28{fill:#9C9579;}
	.st29{fill:#C2B996;}
	.st30{fill:#6E3939;}
	.st31{fill:none;stroke:#944C4C;stroke-miterlimit:10;}
	.st32{clip-path:url(#SVGID_29_);}
	.st33{fill:#B3B3B3;}
	.st34{fill:#FFE9D4;}
	.st35{fill:#D1D1D1;}
	.st36{fill:#FFF3E7;}
	.st37{fill:#B5AEA4;}
	.st38{clip-path:url(#SVGID_31_);fill:#FFFFFF;}
	.st39{clip-path:url(#SVGID_33_);fill:#FFFFFF;}
	.st40{clip-path:url(#SVGID_35_);}
	.st41{fill:#8C5A37;}
	.st42{fill:none;stroke:#734A2D;stroke-width:3;stroke-miterlimit:10;}
	.st43{fill:none;stroke:#734A2D;stroke-width:2;stroke-miterlimit:10;}
	.st44{fill:#734A2D;}
	.st45{clip-path:url(#SVGID_37_);}
	.st46{fill:#9FC5CC;}
	.st47{fill:#A6753B;}
	.st48{fill:#805A2E;}
	.st49{fill:#99774D;}
	.st50{fill:#6A9DA6;}
	.st51{clip-path:url(#SVGID_39_);fill:none;stroke:#4F4B46;stroke-width:3;stroke-miterlimit:10;}
	.st52{clip-path:url(#SVGID_41_);fill:none;stroke:#4F4B46;stroke-width:3;stroke-miterlimit:10;}
	.st53{clip-path:url(#SVGID_43_);fill:none;stroke:#4F4B46;stroke-width:3;stroke-miterlimit:10;}
	.st54{clip-path:url(#SVGID_45_);fill:none;stroke:#4F4B46;stroke-width:3;stroke-miterlimit:10;}
	.st55{clip-path:url(#SVGID_47_);fill:none;stroke:#4F4B46;stroke-width:3;stroke-miterlimit:10;}
	.st56{clip-path:url(#SVGID_49_);fill:none;stroke:#4F4B46;stroke-width:3;stroke-miterlimit:10;}
	.st57{clip-path:url(#SVGID_51_);}
	.st58{fill:none;stroke:#4F4B46;stroke-width:3;stroke-miterlimit:10;}
	.st59{clip-path:url(#SVGID_53_);fill:#4F4B46;}
	.st60{clip-path:url(#SVGID_55_);fill:#4F4B46;}
	.st61{clip-path:url(#SVGID_57_);fill:#4F4B46;}
	.st62{clip-path:url(#SVGID_59_);fill:#4F4B46;}
	.st63{clip-path:url(#SVGID_61_);}
	.st64{fill:#4F4B46;}
	.st65{clip-path:url(#SVGID_63_);}
	.st66{clip-path:url(#SVGID_65_);}
	.st67{clip-path:url(#SVGID_67_);}
	.st68{clip-path:url(#SVGID_69_);}
	.st69{clip-path:url(#SVGID_71_);}
	.st70{clip-path:url(#SVGID_73_);}
	.st71{clip-path:url(#SVGID_75_);}
	.st72{clip-path:url(#SVGID_77_);}
	.st73{clip-path:url(#SVGID_79_);}
	.st74{clip-path:url(#SVGID_81_);}
	.st75{clip-path:url(#SVGID_83_);}
	.st76{clip-path:url(#SVGID_85_);}
	.st77{clip-path:url(#SVGID_87_);}
	.st78{clip-path:url(#SVGID_89_);}
	.st79{clip-path:url(#SVGID_91_);}
	.st80{clip-path:url(#SVGID_93_);}
	.st81{clip-path:url(#SVGID_95_);}
	.st82{clip-path:url(#SVGID_97_);}
	.st83{clip-path:url(#SVGID_99_);}
	.st84{clip-path:url(#SVGID_101_);}
	.st85{clip-path:url(#SVGID_103_);}
	.st86{clip-path:url(#SVGID_105_);}
	.st87{clip-path:url(#SVGID_107_);}
	.st88{clip-path:url(#SVGID_109_);}
	.st89{clip-path:url(#SVGID_111_);}
	.st90{clip-path:url(#SVGID_113_);}
	.st91{clip-path:url(#SVGID_115_);}
	.st92{clip-path:url(#SVGID_117_);}
	.st93{clip-path:url(#SVGID_119_);}
	.st94{clip-path:url(#SVGID_121_);}
	.st95{clip-path:url(#SVGID_123_);}
	.st96{clip-path:url(#SVGID_125_);}
	.st97{clip-path:url(#SVGID_127_);}
	.st98{clip-path:url(#SVGID_129_);}
	.st99{clip-path:url(#SVGID_131_);}
	.st100{clip-path:url(#SVGID_133_);}
	.st101{clip-path:url(#SVGID_135_);}
	.st102{clip-path:url(#SVGID_137_);}
	.st103{clip-path:url(#SVGID_139_);}
	.st104{clip-path:url(#SVGID_141_);}
	.st105{clip-path:url(#SVGID_143_);}
	.st106{clip-path:url(#SVGID_145_);}
	.st107{clip-path:url(#SVGID_147_);}
	.st108{clip-path:url(#SVGID_149_);}
	.st109{clip-path:url(#SVGID_151_);}
	.st110{clip-path:url(#SVGID_153_);}
	.st111{clip-path:url(#SVGID_155_);}
	.st112{clip-path:url(#SVGID_157_);}
	.st113{clip-path:url(#SVGID_159_);}
	.st114{clip-path:url(#SVGID_161_);}
	.st115{clip-path:url(#SVGID_163_);}
	.st116{clip-path:url(#SVGID_165_);}
	.st117{clip-path:url(#SVGID_167_);}
	.st118{clip-path:url(#SVGID_169_);}
	.st119{clip-path:url(#SVGID_171_);}
	.st120{clip-path:url(#SVGID_173_);}
	.st121{fill:#784D2F;}
	.st122{fill:none;stroke:#805332;stroke-width:1.5738;stroke-miterlimit:10;}
	.st123{fill:#574531;}
	.st124{fill:#634F38;}
	.st125{fill:#B88F65;}
	.st126{fill:#A6815B;}
	.st127{fill:#9C7955;}
	.st128{fill:#C79B6E;}
	.st129{fill:#D6A776;}
	.st130{fill:#ED7766;}
	.st131{fill:#FFFAC7;}
	.st132{fill:#7D5E3F;}
	.st133{fill:#96714C;}
	.st134{fill:#E3B17D;}
	.st135{fill:#F5BF87;}
	.st136{fill:#FCC58D;}
	.st137{fill:#CF965B;}
</style>
<g>
	<g>
		<g id="Layer_1_1_">
			<g>
				<g>
					<rect id="SVGID_5_" class="st0" width="800.1" height="600"/>
				</g>
				<g>
					<defs>
						<rect id="SVGID_1_" width="800.1" height="600"/>
					</defs>
					<clipPath id="SVGID_2_">
						<use xlink:href="#SVGID_1_"  style="overflow:visible;"/>
					</clipPath>
					<rect x="-0.1" class="st1" width="800.1" height="406.7"/>
				</g>
				<g>
					<defs>
						<rect id="SVGID_3_" width="800.1" height="600"/>
					</defs>
					<clipPath id="SVGID_4_">
						<use xlink:href="#SVGID_3_"  style="overflow:visible;"/>
					</clipPath>
					<rect y="325.7" class="st2" width="704.6" height="10.9"/>
				</g>
				<g>
					<defs>
						<rect id="SVGID_6_" width="800.1" height="600"/>
					</defs>
					<clipPath id="SVGID_7_">
						<use xlink:href="#SVGID_6_"  style="overflow:visible;"/>
					</clipPath>
					<g class="st3">
						<path class="st4" d="M455.6,356.6L455.6,356.6c-1.7,0-3-1.4-3-3v-16.9h6.1v16.9C458.6,355.2,457.3,356.6,455.6,356.6z"/>
						<path class="st4" d="M288.7,356.6L288.7,356.6c-1.7,0-3-1.4-3-3v-16.9h6.1v16.9C291.8,355.2,290.4,356.6,288.7,356.6z"/>
						<path class="st5" d="M121.9,356.6L121.9,356.6c-1.7,0-3-1.4-3-3v-16.9h6.1v16.9C124.9,355.2,123.5,356.6,121.9,356.6z"/>
					</g>
				</g>
				<g>
					<defs>
						<rect id="SVGID_8_" width="800.1" height="600"/>
					</defs>
					<clipPath id="SVGID_9_">
						<use xlink:href="#SVGID_8_"  style="overflow:visible;"/>
					</clipPath>
					<g class="st6">
						<g>
							<path class="st7" d="M-28,325.9h-4.8v-16.4h14.2v7C-18.6,321.7-22.8,325.9-28,325.9z"/>
							<path class="st7" d="M33.5,325.9h4.8v-16.4H24v7C24,321.7,28.2,325.9,33.5,325.9z"/>
						</g>
						<circle class="st8" cx="2.7" cy="251.7" r="59.5"/>
						<g>
							<circle class="st9" cx="2.7" cy="275.6" r="7.4"/>
							<rect x="1.7" y="265.1" class="st10" width="1.9" height="8.5"/>
							<path class="st11" d="M6.5,289.4h-7.7v-12.6c0-2.1,1.7-3.9,3.9-3.9l0,0c2.1,0,3.9,1.7,3.9,3.9v12.6H6.5z"/>
							<rect x="-3.6" y="263.9" class="st9" width="12.4" height="1.2"/>
							<g>
								<circle class="st10" cx="-3.5" cy="264.5" r="2.4"/>
								<circle class="st10" cx="8.8" cy="264.5" r="2.4"/>
							</g>
						</g>
						<g>
							<line class="st12" x1="-38.4" y1="202.5" x2="-38.4" y2="302.1"/>
							<line class="st12" x1="-11" y1="188.9" x2="-11" y2="314.9"/>
							<line class="st12" x1="16.4" y1="188" x2="16.4" y2="313.1"/>
							<line class="st12" x1="43.8" y1="201.4" x2="43.8" y2="302.1"/>
						</g>
						<path class="st13" d="M2.7,182.8c-38,0-68.9,30.8-68.9,68.9c0,38,30.8,68.9,68.9,68.9s68.9-30.8,68.9-68.9
							S40.8,182.8,2.7,182.8z M2.7,311.1c-32.8,0-59.5-26.6-59.5-59.5c0-32.8,26.6-59.5,59.5-59.5s59.5,26.6,59.5,59.5
							S35.6,311.1,2.7,311.1z"/>
					</g>
				</g>
				<g>
					<defs>
						<rect id="SVGID_10_" width="800.1" height="600"/>
					</defs>
					<clipPath id="SVGID_11_">
						<use xlink:href="#SVGID_10_"  style="overflow:visible;"/>
					</clipPath>
					<g class="st14">
						<g>
							<path class="st7" d="M127.8,325.9H123v-16.4h14.2v7C137.2,321.7,133,325.9,127.8,325.9z"/>
							<path class="st7" d="M189.3,325.9h4.8v-16.4h-14.2v7C179.8,321.7,184.1,325.9,189.3,325.9z"/>
						</g>
						<circle class="st8" cx="158.5" cy="251.7" r="59.5"/>
						<g>
							<circle class="st9" cx="158.5" cy="275.6" r="7.4"/>
							<rect x="157.5" y="265.1" class="st10" width="1.9" height="8.5"/>
							<path class="st11" d="M162.3,289.4h-7.7v-12.6c0-2.1,1.7-3.9,3.9-3.9l0,0c2.1,0,3.9,1.7,3.9,3.9L162.3,289.4L162.3,289.4z"/>
							<rect x="152.3" y="263.9" class="st9" width="12.4" height="1.2"/>
							<g>
								<circle class="st10" cx="152.3" cy="264.5" r="2.4"/>
								<circle class="st10" cx="164.6" cy="264.5" r="2.4"/>
							</g>
						</g>
						<g>
							<line class="st12" x1="117.5" y1="202.5" x2="117.5" y2="302.1"/>
							<line class="st12" x1="144.8" y1="188.9" x2="144.8" y2="314.9"/>
							<line class="st12" x1="172.2" y1="188" x2="172.2" y2="313.1"/>
							<line class="st12" x1="199.6" y1="201.4" x2="199.6" y2="302.1"/>
						</g>
						<path class="st13" d="M158.5,182.8c-38,0-68.9,30.8-68.9,68.9c0,38,30.8,68.9,68.9,68.9s68.9-30.8,68.9-68.9
							S196.6,182.8,158.5,182.8z M158.5,311.1c-32.8,0-59.5-26.6-59.5-59.5c0-32.8,26.6-59.5,59.5-59.5s59.5,26.6,59.5,59.5
							S191.4,311.1,158.5,311.1z"/>
					</g>
				</g>
				<g>
					<defs>
						<rect id="SVGID_12_" width="800.1" height="600"/>
					</defs>
					<clipPath id="SVGID_13_">
						<use xlink:href="#SVGID_12_"  style="overflow:visible;"/>
					</clipPath>
					<g class="st15">
						<g>
							<path class="st7" d="M544.3,325.9h-4.8v-16.4h14.2v7C553.8,321.7,549.5,325.9,544.3,325.9z"/>
							<path class="st7" d="M605.8,325.9h4.8v-16.4h-14.2v7C596.4,321.7,600.6,325.9,605.8,325.9z"/>
						</g>
						<circle class="st8" cx="575.1" cy="251.7" r="59.5"/>
						<g>
							<circle class="st9" cx="575.1" cy="275.6" r="7.4"/>
							<rect x="574.1" y="265.1" class="st10" width="1.9" height="8.5"/>
							<path class="st11" d="M578.9,289.4h-7.7v-12.6c0-2.1,1.7-3.9,3.9-3.9l0,0c2.1,0,3.9,1.7,3.9,3.9v12.6H578.9z"/>
							<rect x="568.8" y="263.9" class="st9" width="12.4" height="1.2"/>
							<g>
								<circle class="st10" cx="568.8" cy="264.5" r="2.4"/>
								<circle class="st10" cx="581.2" cy="264.5" r="2.4"/>
							</g>
						</g>
						<g>
							<line class="st12" x1="534" y1="202.5" x2="534" y2="302.1"/>
							<line class="st12" x1="561.4" y1="188.9" x2="561.4" y2="314.9"/>
							<line class="st12" x1="588.8" y1="188" x2="588.8" y2="313.1"/>
							<line class="st12" x1="616.1" y1="201.4" x2="616.1" y2="302.1"/>
						</g>
						<path class="st13" d="M575.1,182.8c-38,0-68.9,30.8-68.9,68.9c0,38,30.8,68.9,68.9,68.9s68.9-30.8,68.9-68.9
							C643.9,213.6,613.1,182.8,575.1,182.8z M575.1,311.1c-32.8,0-59.5-26.6-59.5-59.5c0-32.8,26.6-59.5,59.5-59.5
							c32.8,0,59.5,26.6,59.5,59.5C634.5,284.5,607.9,311.1,575.1,311.1z"/>
					</g>
				</g>
				<g>
					<defs>
						<rect id="SVGID_14_" width="800.1" height="600"/>
					</defs>
					<clipPath id="SVGID_15_">
						<use xlink:href="#SVGID_14_"  style="overflow:visible;"/>
					</clipPath>
					<rect x="-6.3" y="402.7" class="st16" width="817.1" height="223"/>
				</g>
				<g>
					<defs>
						<rect id="SVGID_16_" width="800.1" height="600"/>
					</defs>
					<clipPath id="SVGID_17_">
						<use xlink:href="#SVGID_16_"  style="overflow:visible;"/>
					</clipPath>
					<g class="st17">
						<line class="st18" x1="188.7" y1="107.5" x2="316.5" y2="0"/>
						<line class="st18" x1="203.3" y1="96.7" x2="188.7" y2="0"/>
						<line class="st18" x1="223.5" y1="80.5" x2="188.7" y2="0"/>
						<line class="st18" x1="188.7" y1="0" x2="244.7" y2="62.7"/>
						<line class="st18" x1="188.7" y1="0" x2="266.5" y2="45.4"/>
						<line class="st18" x1="188.7" y1="0" x2="288.3" y2="25.5"/>
						<line class="st18" x1="306.4" y1="9.6" x2="188.7" y2="0"/>
						<line class="st18" x1="188.7" y1="88.1" x2="273.9" y2="0"/>
						<line class="st18" x1="254.2" y1="0" x2="188.7" y2="50.4"/>
						<line class="st18" x1="188.7" y1="32.6" x2="219.3" y2="0"/>
					</g>
				</g>
				<g>
					<defs>
						<rect id="SVGID_18_" width="800.1" height="600"/>
					</defs>
					<clipPath id="SVGID_19_">
						<use xlink:href="#SVGID_18_"  style="overflow:visible;"/>
					</clipPath>
					<rect x="108.7" class="st19" width="80" height="620"/>
				</g>
				<g>
					<defs>
						<rect id="SVGID_20_" width="800.1" height="600"/>
					</defs>
					<clipPath id="SVGID_21_">
						<use xlink:href="#SVGID_20_"  style="overflow:visible;"/>
					</clipPath>
					<path class="st20" d="M188.7,72.5v157c-12,6.1-25.6,9.6-40,9.6s-28-3.5-40-9.6v-157c12-6.1,25.6-9.6,40-9.6
						C163.1,62.9,176.7,66.3,188.7,72.5z"/>
				</g>
				<g>
					<defs>
						<rect id="SVGID_22_" width="800.1" height="600"/>
					</defs>
					<clipPath id="SVGID_23_">
						<use xlink:href="#SVGID_22_"  style="overflow:visible;"/>
					</clipPath>
					<rect y="393.7" class="st21" width="800.1" height="16"/>
				</g>
				<g>
					<defs>
						<rect id="SVGID_24_" width="800.1" height="600"/>
					</defs>
					<clipPath id="SVGID_25_">
						<use xlink:href="#SVGID_24_"  style="overflow:visible;"/>
					</clipPath>
					<g class="st22">
						<path class="st4" d="M148.7,429.6L148.7,429.6c-1.7,0-3-1.4-3-3v-16.9h6.1v16.9C151.8,428.2,150.4,429.6,148.7,429.6z"/>
						<path class="st4" d="M342.5,429.6L342.5,429.6c-1.7,0-3-1.4-3-3v-16.9h6.1v16.9C345.6,428.2,344.2,429.6,342.5,429.6z"/>
						<path class="st4" d="M536.3,429.6L536.3,429.6c-1.7,0-3-1.4-3-3v-16.9h6.1v16.9C539.4,428.2,538,429.6,536.3,429.6z"/>
						<path class="st4" d="M730.1,429.6L730.1,429.6c-1.7,0-3-1.4-3-3v-16.9h6.1v16.9C733.1,428.2,731.8,429.6,730.1,429.6z"/>
					</g>
				</g>
				<g>
					<defs>
						<rect id="SVGID_26_" width="800.1" height="600"/>
					</defs>
					<clipPath id="SVGID_27_">
						<use xlink:href="#SVGID_26_"  style="overflow:visible;"/>
					</clipPath>
					<g class="st23">
						<g>
							<path class="st24" d="M366.8,464.3v12.4h-145v-12.4c0-0.1,0-0.2,0-0.3c0-0.2,0-0.4,0-0.7c0.5-10.4,9.1-18.6,19.6-18.6h105.8
								C358,444.7,366.8,453.4,366.8,464.3z"/>
							<g>
								<path class="st25" d="M355.3,582.1L355.3,582.1c-5.5,0.6-10.4-3.4-11-8.9l-9-85.5c-0.6-5.5,3.4-10.4,8.9-11l0,0
									c5.5-0.6,10.4,3.4,11,8.9l9,85.5C364.8,576.6,360.8,581.6,355.3,582.1z"/>
								<path class="st25" d="M367.1,694.1L367.1,694.1c-1.4,0.2-2.8-0.9-3-2.3L349.6,597c-0.6-4.1,2.3-7.9,6.4-8.3l0,0
									c4.1-0.4,7.8,2.7,8,6.8l5.6,95.7C369.6,692.7,368.6,694,367.1,694.1z"/>
								<path class="st26" d="M362.6,588l-13.3,1.4c-1.8,0.2-3.4-1.1-3.6-2.9l0,0c-0.2-1.8,1.1-3.4,2.9-3.6l13.3-1.4
									c1.8-0.2,3.4,1.1,3.6,2.9l0,0C365.8,586.2,364.4,587.8,362.6,588z"/>
							</g>
							<g>
								<path class="st25" d="M236,582.1L236,582.1c5.5,0.6,10.4-3.4,11-8.9l9-85.5c0.6-5.5-3.4-10.4-8.9-11l0,0
									c-5.5-0.6-10.4,3.4-11,8.9l-9,85.5C226.6,576.6,230.5,581.6,236,582.1z"/>
								<path class="st25" d="M224.2,694.1L224.2,694.1c1.4,0.2,2.8-0.9,3-2.3l14.6-94.8c0.6-4.1-2.3-7.9-6.4-8.3l0,0
									c-4.1-0.4-7.8,2.7-8,6.8l-5.6,95.7C221.7,692.7,222.7,694,224.2,694.1z"/>
								<path class="st26" d="M228.7,588l13.3,1.4c1.8,0.2,3.4-1.1,3.6-2.9l0,0c0.2-1.8-1.1-3.4-2.9-3.6l-13.3-1.4
									c-1.8-0.2-3.4,1.1-3.6,2.9l0,0C225.5,586.2,226.9,587.8,228.7,588z"/>
							</g>
							<path class="st27" d="M356.3,486.6H235c-1.8,0-3.2-1.4-3.2-3.2v-6.7h127.7v6.7C359.5,485.1,358.1,486.6,356.3,486.6z"/>
							<path class="st26" d="M342.1,531.7h-95.8c-1.6,0-2.8-1.3-2.8-2.8l0,0c0-1.6,1.3-2.8,2.8-2.8h95.8c1.6,0,2.8,1.3,2.8,2.8l0,0
								C344.9,530.5,343.7,531.7,342.1,531.7z"/>
						</g>
						<g>
							<path class="st24" d="M57.3,476.7h-145v-12.4c0-10.8,8.8-19.6,19.6-19.6H37.8c10.8,0,19.6,8.8,19.6,19.6v12.4H57.3z"/>
							<g>
								<path class="st25" d="M45.9,582.1L45.9,582.1c-5.5,0.6-10.4-3.4-11-8.9l-9-85.5c-0.6-5.5,3.4-10.4,8.9-11l0,0
									c5.5-0.6,10.4,3.4,11,8.9l9,85.5C55.4,576.6,51.4,581.6,45.9,582.1z"/>
								<path class="st25" d="M57.7,694.1L57.7,694.1c-1.4,0.2-2.8-0.9-3-2.3L40.2,597c-0.6-4.1,2.3-7.9,6.4-8.3l0,0
									c4.1-0.4,7.8,2.7,8,6.8l5.6,95.7C60.2,692.7,59.2,694,57.7,694.1z"/>
								<path class="st26" d="M53.2,588l-13.3,1.4c-1.8,0.2-3.4-1.1-3.6-2.9l0,0c-0.2-1.8,1.1-3.4,2.9-3.6l13.3-1.4
									c1.8-0.2,3.4,1.1,3.6,2.9l0,0C56.4,586.2,55,587.8,53.2,588z"/>
							</g>
							<g>
								<path class="st25" d="M-73.4,582.1L-73.4,582.1c5.5,0.6,10.4-3.4,11-8.9l9-85.5c0.6-5.5-3.4-10.4-8.9-11l0,0
									c-5.5-0.6-10.4,3.4-11,8.9l-9,85.5C-82.8,576.6-78.9,581.6-73.4,582.1z"/>
								<path class="st25" d="M-85.2,694.1L-85.2,694.1c1.4,0.2,2.8-0.9,3-2.3l14.6-94.8c0.6-4.1-2.3-7.9-6.4-8.3l0,0
									c-4.1-0.4-7.8,2.7-8,6.8l-5.6,95.7C-87.7,692.7-86.7,694-85.2,694.1z"/>
								<path class="st26" d="M-80.7,588l13.3,1.4c1.8,0.2,3.4-1.1,3.6-2.9l0,0c0.2-1.8-1.1-3.4-2.9-3.6l-13.3-1.4
									c-1.8-0.2-3.4,1.1-3.6,2.9l0,0C-83.9,586.2-82.5,587.8-80.7,588z"/>
							</g>
							<path class="st27" d="M46.9,486.6H-74.4c-1.8,0-3.2-1.4-3.2-3.2v-6.7H50.1v6.7C50.1,485.1,48.7,486.6,46.9,486.6z"/>
							<path class="st26" d="M32.7,531.7H-63c-1.6,0-2.8-1.3-2.8-2.8l0,0c0-1.6,1.3-2.8,2.8-2.8h95.8c1.6,0,2.8,1.3,2.8,2.8l0,0
								C35.5,530.5,34.3,531.7,32.7,531.7z"/>
						</g>
						<g>
							<path class="st24" d="M590.6,476.7h-145v-12.4c0-10.8,8.8-19.6,19.6-19.6H571c10.8,0,19.6,8.8,19.6,19.6V476.7z"/>
							<g>
								<path class="st25" d="M579.2,582.1L579.2,582.1c-5.5,0.6-10.4-3.4-11-8.9l-9-85.5c-0.6-5.5,3.4-10.4,8.9-11l0,0
									c5.5-0.6,10.4,3.4,11,8.9l9,85.5C588.6,576.6,584.6,581.6,579.2,582.1z"/>
								<path class="st25" d="M591,694.1L591,694.1c-1.4,0.2-2.8-0.9-3-2.3L573.4,597c-0.6-4.1,2.3-7.9,6.4-8.3l0,0
									c4.1-0.4,7.8,2.7,8,6.8l5.6,95.7C593.5,692.7,592.5,694,591,694.1z"/>
								<path class="st26" d="M586.5,588l-13.3,1.4c-1.8,0.2-3.4-1.1-3.6-2.9l0,0c-0.2-1.8,1.1-3.4,2.9-3.6l13.3-1.4
									c1.8-0.2,3.4,1.1,3.6,2.9l0,0C589.6,586.2,588.3,587.8,586.5,588z"/>
							</g>
							<g>
								<path class="st25" d="M459.9,582.1L459.9,582.1c5.5,0.6,10.4-3.4,11-8.9l9-85.5c0.6-5.5-3.4-10.4-8.9-11l0,0
									c-5.5-0.6-10.4,3.4-11,8.9l-9,85.5C450.4,576.6,454.4,581.6,459.9,582.1z"/>
								<path class="st25" d="M448.1,694.1L448.1,694.1c1.4,0.2,2.8-0.9,3-2.3l14.6-94.8c0.6-4.1-2.3-7.9-6.4-8.3l0,0
									c-4.1-0.4-7.8,2.7-8,6.8l-5.6,95.7C445.5,692.7,446.6,694,448.1,694.1z"/>
								<path class="st26" d="M452.5,588l13.3,1.4c1.8,0.2,3.4-1.1,3.6-2.9l0,0c0.2-1.8-1.1-3.4-2.9-3.6l-13.3-1.4
									c-1.8-0.2-3.4,1.1-3.6,2.9l0,0C449.4,586.2,450.7,587.8,452.5,588z"/>
							</g>
							<path class="st27" d="M580.2,486.6H458.9c-1.8,0-3.2-1.4-3.2-3.2v-6.7h127.7v6.7C583.4,485.1,582,486.6,580.2,486.6z"/>
							<path class="st26" d="M566,531.7h-95.8c-1.6,0-2.8-1.3-2.8-2.8l0,0c0-1.6,1.3-2.8,2.8-2.8H566c1.6,0,2.8,1.3,2.8,2.8l0,0
								C568.8,530.5,567.6,531.7,566,531.7z"/>
						</g>
						<g>
							<path class="st24" d="M814.5,476.7h-145v-12.4c0-10.8,8.8-19.6,19.6-19.6h105.8c10.8,0,19.6,8.8,19.6,19.6L814.5,476.7
								L814.5,476.7z"/>
							<g>
								<path class="st25" d="M803,582.1L803,582.1c-5.5,0.6-10.4-3.4-11-8.9l-9-85.5c-0.6-5.5,3.4-10.4,8.9-11l0,0
									c5.5-0.6,10.4,3.4,11,8.9l9,85.5C812.5,576.6,808.5,581.6,803,582.1z"/>
								<path class="st25" d="M814.9,694.1L814.9,694.1c-1.4,0.2-2.8-0.9-3-2.3L797.3,597c-0.6-4.1,2.3-7.9,6.4-8.3l0,0
									c4.1-0.4,7.8,2.7,8,6.8l5.6,95.7C817.4,692.7,816.3,694,814.9,694.1z"/>
								<path class="st26" d="M810.4,588l-13.3,1.4c-1.8,0.2-3.4-1.1-3.6-2.9l0,0c-0.2-1.8,1.1-3.4,2.9-3.6l13.3-1.4
									c1.8-0.2,3.4,1.1,3.6,2.9l0,0C813.5,586.2,812.2,587.8,810.4,588z"/>
							</g>
							<g>
								<path class="st25" d="M683.8,582.1L683.8,582.1c5.5,0.6,10.4-3.4,11-8.9l9-85.5c0.6-5.5-3.4-10.4-8.9-11l0,0
									c-5.5-0.6-10.4,3.4-11,8.9l-9,85.5C674.3,576.6,678.3,581.6,683.8,582.1z"/>
								<path class="st25" d="M671.9,694.1L671.9,694.1c1.4,0.2,2.8-0.9,3-2.3l14.6-94.8c0.6-4.1-2.3-7.9-6.4-8.3l0,0
									c-4.1-0.4-7.8,2.7-8,6.8l-5.6,95.7C669.4,692.7,670.5,694,671.9,694.1z"/>
								<path class="st26" d="M676.4,588l13.3,1.4c1.8,0.2,3.4-1.1,3.6-2.9l0,0c0.2-1.8-1.1-3.4-2.9-3.6l-13.3-1.4
									c-1.8-0.2-3.4,1.1-3.6,2.9l0,0C673.3,586.2,674.6,587.8,676.4,588z"/>
							</g>
							<path class="st27" d="M804.1,486.6H682.7c-1.8,0-3.2-1.4-3.2-3.2v-6.7h127.7v6.7C807.3,485.1,805.8,486.6,804.1,486.6z"/>
							<path class="st26" d="M792.8,528.6c0.1,0.8-0.2,1.5-0.6,2.1c-0.5,0.6-1.1,1-1.9,1l-40,4.3l-0.6-5.6l40-4.3
								C791.2,525.9,792.6,527.1,792.8,528.6z"/>
							<path class="st26" d="M749.6,530.2l-0.4,5.6l-55.3-4.2c-1.6-0.1-2.7-1.5-2.6-3c0.1-0.8,0.4-1.5,1-1.9c0.5-0.5,1.3-0.7,2-0.7
								L749.6,530.2z"/>
							<path class="st28" d="M752.9,537.8h-6.3c-2.8,0-5-2.2-5-5l0,0c0-2.8,2.2-5,5-5h6.3c2.8,0,5,2.2,5,5l0,0
								C757.9,535.5,755.7,537.8,752.9,537.8z"/>
							<path class="st29" d="M753,538.7h-4.4c-0.6,0-1.1-0.5-1.1-1.1v-9.5c0-0.6,0.5-1.1,1.1-1.1h4.4c0.6,0,1.1,0.5,1.1,1.1v9.5
								C754.1,538.2,753.6,538.7,753,538.7z"/>
						</g>
						<g>
							<path class="st30" d="M305.3,444.7l-18.4,18c-1.7,1.7-4,2.6-6.4,2.6h-58.8v-2h58.8c1.9,0,3.6-0.7,5-2l17-16.6H305.3z"/>
						</g>
						<line class="st31" x1="227.9" y1="460.7" x2="227.9" y2="468.3"/>
						<line class="st31" x1="234.5" y1="460.7" x2="234.5" y2="468.3"/>
						<line class="st31" x1="241.1" y1="460.7" x2="241.1" y2="468.3"/>
						<line class="st31" x1="247.7" y1="460.7" x2="247.7" y2="468.3"/>
						<line class="st31" x1="254.3" y1="460.7" x2="254.3" y2="468.3"/>
						<line class="st31" x1="260.9" y1="460.7" x2="260.9" y2="468.3"/>
						<line class="st31" x1="280.5" y1="461.2" x2="284.5" y2="467.7"/>
						<line class="st31" x1="283.8" y1="458.4" x2="290" y2="462.9"/>
						<line class="st31" x1="288.8" y1="453.8" x2="293.1" y2="460"/>
						<line class="st31" x1="293.7" y1="450.4" x2="301.1" y2="452"/>
						<line class="st31" x1="273.1" y1="461.8" x2="267.7" y2="467.2"/>
						<line class="st31" x1="267.7" y1="461.8" x2="273.1" y2="467.2"/>
					</g>
				</g>
				<g>
					<defs>
						<rect id="SVGID_28_" width="800.1" height="600"/>
					</defs>
					<clipPath id="SVGID_29_">
						<use xlink:href="#SVGID_28_"  style="overflow:visible;"/>
					</clipPath>
					<g class="st32">
						<g>
							<rect x="141.3" y="175" class="st33" width="14.8" height="16"/>
							<path class="st33" d="M148.9,212.9L148.9,212.9c-1.7,0-3.1-1.4-3.1-3.1v-1.3h6.2v1.3C152,211.5,150.6,212.9,148.9,212.9z"/>
							<circle class="st34" cx="148.7" cy="151" r="24"/>
							<rect x="140.7" y="104.4" class="st34" width="16" height="36.3"/>
							<path class="st35" d="M158.4,175h-19.2c-2.5,0-4.6-2-4.6-4.6l0,0h28.3l0,0C162.9,173,160.9,175,158.4,175z"/>
							<path class="st35" d="M148.9,208.9L148.9,208.9c-8.9,0-16.1-7.2-16.1-16.1v-8.2c0-2.2,1.8-4.1,4.1-4.1H161
								c2.2,0,4.1,1.8,4.1,4.1v8.2C165,201.7,157.8,208.9,148.9,208.9z"/>
						</g>
						<circle class="st36" cx="134.3" cy="122.7" r="1.6"/>
						<circle class="st36" cx="155.3" cy="89.6" r="0.8"/>
						<circle class="st37" cx="167.7" cy="110.7" r="2.4"/>
					</g>
				</g>
				<g>
					<defs>
						<rect id="SVGID_30_" width="800.1" height="600"/>
					</defs>
					<clipPath id="SVGID_31_">
						<use xlink:href="#SVGID_30_"  style="overflow:visible;"/>
					</clipPath>
					<circle class="st38" cx="148.7" cy="155.8" r="10.7"/>
				</g>
				<g>
					<defs>
						<rect id="SVGID_32_" width="800.1" height="600"/>
					</defs>
					<clipPath id="SVGID_33_">
						<use xlink:href="#SVGID_32_"  style="overflow:visible;"/>
					</clipPath>
					<rect x="138.2" y="102.4" class="st39" width="21.1" height="4.6"/>
				</g>
				<g>
					<defs>
						<rect id="SVGID_34_" width="800.1" height="600"/>
					</defs>
					<clipPath id="SVGID_35_">
						<use xlink:href="#SVGID_34_"  style="overflow:visible;"/>
					</clipPath>
					<g class="st40">
						<rect x="651.7" y="260.7" class="st25" width="148.3" height="133"/>
						<path class="st41" d="M667.8,393.7h-16.1V262.4c0-2.6,2.1-4.6,4.6-4.6h6.8c2.6,0,4.6,2.1,4.6,4.6v131.3H667.8z"/>
						<g>
							<line class="st42" x1="667.8" y1="306.4" x2="800" y2="306.4"/>
							<line class="st42" x1="667.8" y1="348" x2="800" y2="348"/>
						</g>
						<rect x="667.8" y="386.4" class="st26" width="132.2" height="7.3"/>
						<path class="st43" d="M667.8,371h26.3l0,0c0-3.2,2.6-5.8,5.8-5.8h5.8c3.2,0,5.8,2.6,5.8,5.8l0,0h14.9"/>
						<path class="st44" d="M704.5,374.5h-2.7c-1.2,0-2.1-0.9-2.1-2.1v-0.9c0-1.2,0.9-2.1,2.1-2.1h2.7c1.2,0,2.1,0.9,2.1,2.1v0.9
							C706.6,373.5,705.7,374.5,704.5,374.5z"/>
						<g>
							<g>
								<defs>
									<rect id="SVGID_36_" x="670.3" y="124.5" width="129.7" height="145.7"/>
								</defs>
								<clipPath id="SVGID_37_">
									<use xlink:href="#SVGID_36_"  style="overflow:visible;"/>
								</clipPath>
								<g class="st45">
									<g>
										<rect x="694.3" y="249.6" class="st46" width="4.2" height="11.1"/>
										<g>
											<path class="st47" d="M696.4,248L696.4,248c-3,0-5.4-2.4-5.4-5.4v-12.5h10.8v12.5C701.7,245.6,699.3,248,696.4,248z"/>
											<path class="st48" d="M700.9,231.2h-9c-2.2,0-3.9-1.7-3.9-3.9v-25.8h16.8v25.8C704.8,229.4,703,231.2,700.9,231.2z"/>
											<g>
												<g>
													<path class="st10" d="M705.2,156.4l-3.9,7.2l-5,1.6l-5-1.6l-3.9-7.2c-0.4-0.8-0.2-1.7,0.4-2.3l7.1-6.3
														c0.8-0.7,1.9-0.7,2.7,0l7.1,6.3C705.5,154.7,705.6,155.6,705.2,156.4z"/>
												</g>
											</g>
											<path class="st9" d="M702.4,161.7h-12c-0.9,0-1.7,0.7-1.7,1.7v3.2h15.4v-3.2C704.1,162.4,703.3,161.7,702.4,161.7z"/>
											<circle class="st49" cx="696.4" cy="184.4" r="20"/>
											<circle class="st48" cx="696.4" cy="184.4" r="15.4"/>
											<path class="st11" d="M709.1,190.8h-25.4c-1.5,0-2.7-1.2-2.7-2.7v-7.3c0-1.5,1.2-2.7,2.7-2.7h25.4c1.5,0,2.7,1.2,2.7,2.7
												v7.3C711.8,189.6,710.6,190.8,709.1,190.8z"/>
										</g>
										<path class="st50" d="M699,250h-5.3c-1,0-1.8-0.8-1.8-1.8V247c0-0.5,0.4-0.8,0.8-0.8h7.2c0.5,0,0.8,0.4,0.8,0.8v1.2
											C700.8,249.2,700,250,699,250z"/>
									</g>
									<g>
										<rect x="745.8" y="249.6" class="st46" width="4.2" height="11.1"/>
										<g>
											<path class="st47" d="M747.9,248L747.9,248c-3,0-5.4-2.4-5.4-5.4v-12.5h10.8v12.5C753.3,245.6,750.9,248,747.9,248z"/>
											<path class="st48" d="M752.4,231.2h-9c-2.2,0-3.9-1.7-3.9-3.9v-25.8h16.8v25.8C756.3,229.4,754.5,231.2,752.4,231.2z"/>
											<g>
												<g>
													<path class="st10" d="M756.7,156.4l-3.9,7.2l-5,1.6l-5-1.6l-3.9-7.2c-0.4-0.8-0.2-1.7,0.4-2.3l7.1-6.3
														c0.8-0.7,1.9-0.7,2.7,0l7.1,6.3C757,154.7,757.2,155.6,756.7,156.4z"/>
												</g>
											</g>
											<path class="st9" d="M753.9,161.7h-12c-0.9,0-1.7,0.7-1.7,1.7v3.2h15.4v-3.2C755.6,162.4,754.8,161.7,753.9,161.7z"/>
											<circle class="st49" cx="747.9" cy="184.4" r="20"/>
											<circle class="st48" cx="747.9" cy="184.4" r="15.4"/>
											<path class="st11" d="M760.6,190.8h-25.4c-1.5,0-2.7-1.2-2.7-2.7v-7.3c0-1.5,1.2-2.7,2.7-2.7h25.4c1.5,0,2.7,1.2,2.7,2.7
												v7.3C763.3,189.6,762.1,190.8,760.6,190.8z"/>
										</g>
										<path class="st50" d="M750.5,250h-5.3c-1,0-1.8-0.8-1.8-1.8V247c0-0.5,0.4-0.8,0.8-0.8h7.2c0.5,0,0.8,0.4,0.8,0.8v1.2
											C752.3,249.2,751.5,250,750.5,250z"/>
									</g>
									<g>
										<rect x="797.3" y="249.6" class="st46" width="4.2" height="11.1"/>
										<g>
											<path class="st47" d="M799.4,248L799.4,248c-3,0-5.4-2.4-5.4-5.4v-12.5h10.8v12.5C804.8,245.6,802.4,248,799.4,248z"/>
											<path class="st48" d="M803.9,231.2h-9c-2.2,0-3.9-1.7-3.9-3.9v-25.8h16.8v25.8C807.8,229.4,806.1,231.2,803.9,231.2z"/>
											<g>
												<g>
													<path class="st10" d="M808.3,156.4l-3.9,7.2l-5,1.6l-5-1.6l-3.9-7.2c-0.4-0.8-0.2-1.7,0.4-2.3l7.1-6.3
														c0.8-0.7,1.9-0.7,2.7,0l7.1,6.3C808.5,154.7,808.7,155.6,808.3,156.4z"/>
												</g>
											</g>
											<path class="st9" d="M805.4,161.7h-12c-0.9,0-1.7,0.7-1.7,1.7v3.2h15.4v-3.2C807.1,162.4,806.4,161.7,805.4,161.7z"/>
											<circle class="st49" cx="799.4" cy="184.4" r="20"/>
											<circle class="st48" cx="799.4" cy="184.4" r="15.4"/>
											<path class="st11" d="M812.1,190.8h-25.4c-1.5,0-2.7-1.2-2.7-2.7v-7.3c0-1.5,1.2-2.7,2.7-2.7h25.4c1.5,0,2.7,1.2,2.7,2.7
												v7.3C814.8,189.6,813.6,190.8,812.1,190.8z"/>
										</g>
										<path class="st50" d="M802.1,250h-5.3c-1,0-1.8-0.8-1.8-1.8V247c0-0.5,0.4-0.8,0.8-0.8h7.2c0.5,0,0.8,0.4,0.8,0.8v1.2
											C803.9,249.2,803.1,250,802.1,250z"/>
									</g>
								</g>
							</g>
						</g>
						<g>
							<defs>
								<rect id="SVGID_38_" width="800.1" height="600"/>
							</defs>
							<clipPath id="SVGID_39_">
								<use xlink:href="#SVGID_38_"  style="overflow:visible;"/>
							</clipPath>
							<line class="st51" x1="613.7" y1="102.3" x2="747.9" y2="102.3"/>
						</g>
						<g>
							<defs>
								<rect id="SVGID_40_" width="800.1" height="600"/>
							</defs>
							<clipPath id="SVGID_41_">
								<use xlink:href="#SVGID_40_"  style="overflow:visible;"/>
							</clipPath>
							<line class="st52" x1="581.2" y1="133.5" x2="682.1" y2="133.5"/>
						</g>
						<g>
							<defs>
								<rect id="SVGID_42_" width="800.1" height="600"/>
							</defs>
							<clipPath id="SVGID_43_">
								<use xlink:href="#SVGID_42_"  style="overflow:visible;"/>
							</clipPath>
							<line class="st53" x1="653.9" y1="102.3" x2="653.9" y2="134"/>
						</g>
						<g>
							<defs>
								<rect id="SVGID_44_" width="800.1" height="600"/>
							</defs>
							<clipPath id="SVGID_45_">
								<use xlink:href="#SVGID_44_"  style="overflow:visible;"/>
							</clipPath>
							<line class="st54" x1="723.1" y1="102.3" x2="723.1" y2="134"/>
						</g>
						<g>
							<defs>
								<rect id="SVGID_46_" width="800.1" height="600"/>
							</defs>
							<clipPath id="SVGID_47_">
								<use xlink:href="#SVGID_46_"  style="overflow:visible;"/>
							</clipPath>
							<line class="st55" x1="611.4" y1="133.6" x2="611.4" y2="159.5"/>
						</g>
						<g>
							<defs>
								<rect id="SVGID_48_" width="800.1" height="600"/>
							</defs>
							<clipPath id="SVGID_49_">
								<use xlink:href="#SVGID_48_"  style="overflow:visible;"/>
							</clipPath>
							<line class="st56" x1="684.6" y1="102.6" x2="684.6" y2="68.8"/>
						</g>
						<g>
							<defs>
								<rect id="SVGID_50_" width="800.1" height="600"/>
							</defs>
							<clipPath id="SVGID_51_">
								<use xlink:href="#SVGID_50_"  style="overflow:visible;"/>
							</clipPath>
							<g class="st57">
								<line class="st58" x1="337.4" y1="167.3" x2="422.3" y2="167.3"/>
								<line class="st58" x1="365.1" y1="145.2" x2="365.1" y2="167.2"/>
							</g>
						</g>
						<g>
							<defs>
								<rect id="SVGID_52_" width="800.1" height="600"/>
							</defs>
							<clipPath id="SVGID_53_">
								<use xlink:href="#SVGID_52_"  style="overflow:visible;"/>
							</clipPath>
							<circle class="st59" cx="561.2" cy="131.8" r="1.8"/>
						</g>
						<g>
							<defs>
								<rect id="SVGID_54_" width="800.1" height="600"/>
							</defs>
							<clipPath id="SVGID_55_">
								<use xlink:href="#SVGID_54_"  style="overflow:visible;"/>
							</clipPath>
							<circle class="st60" cx="550.8" cy="131" r="1.8"/>
						</g>
						<g>
							<defs>
								<rect id="SVGID_56_" width="800.1" height="600"/>
							</defs>
							<clipPath id="SVGID_57_">
								<use xlink:href="#SVGID_56_"  style="overflow:visible;"/>
							</clipPath>
							<circle class="st61" cx="562.7" cy="120.7" r="1.8"/>
						</g>
						<g>
							<defs>
								<rect id="SVGID_58_" width="800.1" height="600"/>
							</defs>
							<clipPath id="SVGID_59_">
								<use xlink:href="#SVGID_58_"  style="overflow:visible;"/>
							</clipPath>
							<circle class="st62" cx="576.9" cy="143.2" r="1.8"/>
						</g>
						<g>
							<defs>
								<rect id="SVGID_60_" width="800.1" height="600"/>
							</defs>
							<clipPath id="SVGID_61_">
								<use xlink:href="#SVGID_60_"  style="overflow:visible;"/>
							</clipPath>
							<g class="st63">
								<g>
									<path class="st64" d="M527.2,68c1.9,0,1.9-3,0-3S525.3,68,527.2,68L527.2,68z"/>
								</g>
							</g>
						</g>
						<g>
							<defs>
								<rect id="SVGID_62_" width="800.1" height="600"/>
							</defs>
							<clipPath id="SVGID_63_">
								<use xlink:href="#SVGID_62_"  style="overflow:visible;"/>
							</clipPath>
							<g class="st65">
								<g>
									<path class="st64" d="M610.3,79.2c-0.1-0.1-0.1-0.1-0.2-0.2c-0.7-0.7-1.7,0.4-1.1,1.1c0.1,0.1,0.1,0.1,0.2,0.2
										C609.9,80.9,610.9,79.9,610.3,79.2L610.3,79.2z"/>
								</g>
							</g>
						</g>
						<g>
							<defs>
								<rect id="SVGID_64_" width="800.1" height="600"/>
							</defs>
							<clipPath id="SVGID_65_">
								<use xlink:href="#SVGID_64_"  style="overflow:visible;"/>
							</clipPath>
							<g class="st66">
								<g>
									<path class="st64" d="M584.6,70.5c1,0,1-1.5,0-1.5C583.7,69,583.7,70.5,584.6,70.5L584.6,70.5z"/>
								</g>
							</g>
						</g>
						<g>
							<defs>
								<rect id="SVGID_66_" width="800.1" height="600"/>
							</defs>
							<clipPath id="SVGID_67_">
								<use xlink:href="#SVGID_66_"  style="overflow:visible;"/>
							</clipPath>
							<g class="st67">
								<g>
									<path class="st64" d="M592.7,61.8c1,0,1-1.5,0-1.5C591.8,60.3,591.7,61.8,592.7,61.8L592.7,61.8z"/>
								</g>
							</g>
						</g>
						<g>
							<defs>
								<rect id="SVGID_68_" width="800.1" height="600"/>
							</defs>
							<clipPath id="SVGID_69_">
								<use xlink:href="#SVGID_68_"  style="overflow:visible;"/>
							</clipPath>
							<g class="st68">
								<g>
									<path class="st64" d="M599.3,63.3c1,0,1-1.5,0-1.5S598.3,63.3,599.3,63.3L599.3,63.3z"/>
								</g>
							</g>
						</g>
						<g>
							<defs>
								<rect id="SVGID_70_" width="800.1" height="600"/>
							</defs>
							<clipPath id="SVGID_71_">
								<use xlink:href="#SVGID_70_"  style="overflow:visible;"/>
							</clipPath>
							<g class="st69">
								<g>
									<path class="st64" d="M510.7,99c1,0,1-1.5,0-1.5S509.7,99,510.7,99L510.7,99z"/>
								</g>
							</g>
						</g>
						<g>
							<defs>
								<rect id="SVGID_72_" width="800.1" height="600"/>
							</defs>
							<clipPath id="SVGID_73_">
								<use xlink:href="#SVGID_72_"  style="overflow:visible;"/>
							</clipPath>
							<g class="st70">
								<g>
									<path class="st64" d="M660.3,156.4c1,0,1-1.5,0-1.5C659.4,154.9,659.3,156.4,660.3,156.4L660.3,156.4z"/>
								</g>
							</g>
						</g>
						<g>
							<defs>
								<rect id="SVGID_74_" width="800.1" height="600"/>
							</defs>
							<clipPath id="SVGID_75_">
								<use xlink:href="#SVGID_74_"  style="overflow:visible;"/>
							</clipPath>
							<g class="st71">
								<g>
									<path class="st64" d="M635,145.3c1,0,1-1.5,0-1.5C634.1,143.8,634.1,145.3,635,145.3L635,145.3z"/>
								</g>
							</g>
						</g>
						<g>
							<defs>
								<rect id="SVGID_76_" width="800.1" height="600"/>
							</defs>
							<clipPath id="SVGID_77_">
								<use xlink:href="#SVGID_76_"  style="overflow:visible;"/>
							</clipPath>
							<g class="st72">
								<g>
									<path class="st64" d="M628.7,164.2c-0.1,0.1-0.1,0.1-0.2,0.2c-0.7,0.7,0.4,1.7,1.1,1.1c0.1-0.1,0.1-0.1,0.2-0.2
										C630.5,164.6,629.4,163.5,628.7,164.2L628.7,164.2z"/>
								</g>
							</g>
						</g>
						<g>
							<defs>
								<rect id="SVGID_78_" width="800.1" height="600"/>
							</defs>
							<clipPath id="SVGID_79_">
								<use xlink:href="#SVGID_78_"  style="overflow:visible;"/>
							</clipPath>
							<g class="st73">
								<g>
									<path class="st64" d="M604.4,182.5c1,0,1-1.5,0-1.5S603.4,182.5,604.4,182.5L604.4,182.5z"/>
								</g>
							</g>
						</g>
						<g>
							<defs>
								<rect id="SVGID_80_" width="800.1" height="600"/>
							</defs>
							<clipPath id="SVGID_81_">
								<use xlink:href="#SVGID_80_"  style="overflow:visible;"/>
							</clipPath>
							<g class="st74">
								<g>
									<path class="st64" d="M485.8,72.1c1.4,0,1.5-2.2,0-2.2S484.3,72.1,485.8,72.1L485.8,72.1z"/>
								</g>
							</g>
						</g>
						<g>
							<defs>
								<rect id="SVGID_82_" width="800.1" height="600"/>
							</defs>
							<clipPath id="SVGID_83_">
								<use xlink:href="#SVGID_82_"  style="overflow:visible;"/>
							</clipPath>
							<g class="st75">
								<g>
									<path class="st64" d="M473,99.6c-0.1,0-0.1,0-0.2,0c-1.4,0-1.5,2.2,0,2.2c0.1,0,0.1,0,0.2,0
										C474.5,101.9,474.5,99.6,473,99.6L473,99.6z"/>
								</g>
							</g>
						</g>
						<g>
							<defs>
								<rect id="SVGID_84_" width="800.1" height="600"/>
							</defs>
							<clipPath id="SVGID_85_">
								<use xlink:href="#SVGID_84_"  style="overflow:visible;"/>
							</clipPath>
							<g class="st76">
								<g>
									<path class="st64" d="M670.3,111.2c1.4,0,1.5-2.2,0-2.2C668.9,109,668.9,111.2,670.3,111.2L670.3,111.2z"/>
								</g>
							</g>
						</g>
						<g>
							<defs>
								<rect id="SVGID_86_" width="800.1" height="600"/>
							</defs>
							<clipPath id="SVGID_87_">
								<use xlink:href="#SVGID_86_"  style="overflow:visible;"/>
							</clipPath>
							<g class="st77">
								<g>
									<path class="st64" d="M690.3,124.2c1.4,0,1.5-2.2,0-2.2S688.8,124.2,690.3,124.2L690.3,124.2z"/>
								</g>
							</g>
						</g>
						<g>
							<defs>
								<rect id="SVGID_88_" width="800.1" height="600"/>
							</defs>
							<clipPath id="SVGID_89_">
								<use xlink:href="#SVGID_88_"  style="overflow:visible;"/>
							</clipPath>
							<g class="st78">
								<g>
									<path class="st64" d="M585,204.5c1.9,0,1.9-3,0-3S583.1,204.5,585,204.5L585,204.5z"/>
								</g>
							</g>
						</g>
						<g>
							<defs>
								<rect id="SVGID_90_" width="800.1" height="600"/>
							</defs>
							<clipPath id="SVGID_91_">
								<use xlink:href="#SVGID_90_"  style="overflow:visible;"/>
							</clipPath>
							<g class="st79">
								<g>
									<path class="st64" d="M460,164.5c1.9,0,1.9-3,0-3S458.1,164.5,460,164.5L460,164.5z"/>
								</g>
							</g>
						</g>
						<g>
							<defs>
								<rect id="SVGID_92_" width="800.1" height="600"/>
							</defs>
							<clipPath id="SVGID_93_">
								<use xlink:href="#SVGID_92_"  style="overflow:visible;"/>
							</clipPath>
							<g class="st80">
								<g>
									<path class="st64" d="M470,72.5c1.9,0,1.9-3,0-3S468.1,72.5,470,72.5L470,72.5z"/>
								</g>
							</g>
						</g>
						<g>
							<defs>
								<rect id="SVGID_94_" width="800.1" height="600"/>
							</defs>
							<clipPath id="SVGID_95_">
								<use xlink:href="#SVGID_94_"  style="overflow:visible;"/>
							</clipPath>
							<g class="st81">
								<g>
									<path class="st64" d="M619,93.5c1.9,0,1.9-3,0-3S617.1,93.5,619,93.5L619,93.5z"/>
								</g>
							</g>
						</g>
						<g>
							<defs>
								<rect id="SVGID_96_" width="800.1" height="600"/>
							</defs>
							<clipPath id="SVGID_97_">
								<use xlink:href="#SVGID_96_"  style="overflow:visible;"/>
							</clipPath>
							<g class="st82">
								<g>
									<path class="st64" d="M546,186c3.9,0,3.9-6,0-6S542.1,186,546,186L546,186z"/>
								</g>
							</g>
						</g>
						<g>
							<defs>
								<rect id="SVGID_98_" width="800.1" height="600"/>
							</defs>
							<clipPath id="SVGID_99_">
								<use xlink:href="#SVGID_98_"  style="overflow:visible;"/>
							</clipPath>
							<g class="st83">
								<g>
									<path class="st64" d="M497,121c3.9,0,3.9-6,0-6S493.1,121,497,121L497,121z"/>
								</g>
							</g>
						</g>
						<g>
							<defs>
								<rect id="SVGID_100_" width="800.1" height="600"/>
							</defs>
							<clipPath id="SVGID_101_">
								<use xlink:href="#SVGID_100_"  style="overflow:visible;"/>
							</clipPath>
							<g class="st84">
								<g>
									<path class="st64" d="M201,150.5c1.9,0,1.9-3,0-3S199.1,150.5,201,150.5L201,150.5z"/>
								</g>
							</g>
						</g>
						<g>
							<defs>
								<rect id="SVGID_102_" width="800.1" height="600"/>
							</defs>
							<clipPath id="SVGID_103_">
								<use xlink:href="#SVGID_102_"  style="overflow:visible;"/>
							</clipPath>
							<g class="st85">
								<g>
									<path class="st64" d="M200,129.5c1.9,0,1.9-3,0-3S198.1,129.5,200,129.5L200,129.5z"/>
								</g>
							</g>
						</g>
						<g>
							<defs>
								<rect id="SVGID_104_" width="800.1" height="600"/>
							</defs>
							<clipPath id="SVGID_105_">
								<use xlink:href="#SVGID_104_"  style="overflow:visible;"/>
							</clipPath>
							<g class="st86">
								<g>
									<path class="st64" d="M218,132.2c2.9,0,2.9-4.5,0-4.5C215.1,127.8,215.1,132.2,218,132.2L218,132.2z"/>
								</g>
							</g>
						</g>
						<g>
							<defs>
								<rect id="SVGID_106_" width="800.1" height="600"/>
							</defs>
							<clipPath id="SVGID_107_">
								<use xlink:href="#SVGID_106_"  style="overflow:visible;"/>
							</clipPath>
							<g class="st87">
								<g>
									<path class="st64" d="M241.6,149.8c1.9,0,1.9-3,0-3C239.6,146.8,239.6,149.8,241.6,149.8L241.6,149.8z"/>
								</g>
							</g>
						</g>
						<g>
							<defs>
								<rect id="SVGID_108_" width="800.1" height="600"/>
							</defs>
							<clipPath id="SVGID_109_">
								<use xlink:href="#SVGID_108_"  style="overflow:visible;"/>
							</clipPath>
							<g class="st88">
								<g>
									<path class="st64" d="M236,122.2c2.9,0,2.9-4.5,0-4.5C233.1,117.8,233.1,122.2,236,122.2L236,122.2z"/>
								</g>
							</g>
						</g>
						<g>
							<defs>
								<rect id="SVGID_110_" width="800.1" height="600"/>
							</defs>
							<clipPath id="SVGID_111_">
								<use xlink:href="#SVGID_110_"  style="overflow:visible;"/>
							</clipPath>
							<g class="st89">
								<g>
									<path class="st64" d="M268,96.2c0.3,0,0.7,0,1,0c1.2,0,2.3-1,2.2-2.2c-0.1-1.2-1-2.2-2.2-2.2c-0.3,0-0.7,0-1,0
										c-1.2,0-2.3,1-2.2,2.2C265.8,95.2,266.7,96.2,268,96.2L268,96.2z"/>
								</g>
							</g>
						</g>
						<g>
							<defs>
								<rect id="SVGID_112_" width="800.1" height="600"/>
							</defs>
							<clipPath id="SVGID_113_">
								<use xlink:href="#SVGID_112_"  style="overflow:visible;"/>
							</clipPath>
							<g class="st90">
								<g>
									<path class="st64" d="M317,152.2c2.9,0,2.9-4.5,0-4.5C314.1,147.8,314.1,152.2,317,152.2L317,152.2z"/>
								</g>
							</g>
						</g>
						<g>
							<defs>
								<rect id="SVGID_114_" width="800.1" height="600"/>
							</defs>
							<clipPath id="SVGID_115_">
								<use xlink:href="#SVGID_114_"  style="overflow:visible;"/>
							</clipPath>
							<g class="st91">
								<g>
									<path class="st64" d="M226,156.2c2.9,0,2.9-4.5,0-4.5C223.1,151.8,223.1,156.2,226,156.2L226,156.2z"/>
								</g>
							</g>
						</g>
						<g>
							<defs>
								<rect id="SVGID_116_" width="800.1" height="600"/>
							</defs>
							<clipPath id="SVGID_117_">
								<use xlink:href="#SVGID_116_"  style="overflow:visible;"/>
							</clipPath>
							<g class="st92">
								<g>
									<path class="st64" d="M84,15.2c2.9,0,2.9-4.5,0-4.5C81.1,10.8,81.1,15.2,84,15.2L84,15.2z"/>
								</g>
							</g>
						</g>
						<g>
							<defs>
								<rect id="SVGID_118_" width="800.1" height="600"/>
							</defs>
							<clipPath id="SVGID_119_">
								<use xlink:href="#SVGID_118_"  style="overflow:visible;"/>
							</clipPath>
							<g class="st93">
								<g>
									<path class="st64" d="M87,37.2c2.9,0,2.9-4.5,0-4.5C84.1,32.8,84.1,37.2,87,37.2L87,37.2z"/>
								</g>
							</g>
						</g>
						<g>
							<defs>
								<rect id="SVGID_120_" width="800.1" height="600"/>
							</defs>
							<clipPath id="SVGID_121_">
								<use xlink:href="#SVGID_120_"  style="overflow:visible;"/>
							</clipPath>
							<g class="st94">
								<g>
									<path class="st64" d="M77,31.2c2.9,0,2.9-4.5,0-4.5C74.1,26.8,74.1,31.2,77,31.2L77,31.2z"/>
								</g>
							</g>
						</g>
						<g>
							<defs>
								<rect id="SVGID_122_" width="800.1" height="600"/>
							</defs>
							<clipPath id="SVGID_123_">
								<use xlink:href="#SVGID_122_"  style="overflow:visible;"/>
							</clipPath>
							<g class="st95">
								<g>
									<path class="st64" d="M66.8,24c0,0.7,0,1.3,0,2c0,1.2,1,2.3,2.2,2.2c1.2-0.1,2.2-1,2.2-2.2c0-0.7,0-1.3,0-2
										c0-1.2-1-2.3-2.2-2.2C67.8,21.8,66.8,22.7,66.8,24L66.8,24z"/>
								</g>
							</g>
						</g>
						<g>
							<defs>
								<rect id="SVGID_124_" width="800.1" height="600"/>
							</defs>
							<clipPath id="SVGID_125_">
								<use xlink:href="#SVGID_124_"  style="overflow:visible;"/>
							</clipPath>
							<g class="st96">
								<g>
									<path class="st64" d="M45,71.2c2.9,0,2.9-4.5,0-4.5C42.1,66.8,42.1,71.2,45,71.2L45,71.2z"/>
								</g>
							</g>
						</g>
						<g>
							<defs>
								<rect id="SVGID_126_" width="800.1" height="600"/>
							</defs>
							<clipPath id="SVGID_127_">
								<use xlink:href="#SVGID_126_"  style="overflow:visible;"/>
							</clipPath>
							<g class="st97">
								<g>
									<path class="st64" d="M10,40.2c2.9,0,2.9-4.5,0-4.5C7.1,35.8,7.1,40.2,10,40.2L10,40.2z"/>
								</g>
							</g>
						</g>
						<g>
							<defs>
								<rect id="SVGID_128_" width="800.1" height="600"/>
							</defs>
							<clipPath id="SVGID_129_">
								<use xlink:href="#SVGID_128_"  style="overflow:visible;"/>
							</clipPath>
							<g class="st98">
								<g>
									<path class="st64" d="M252,134.5c1.9,0,1.9-3,0-3S250.1,134.5,252,134.5L252,134.5z"/>
								</g>
							</g>
						</g>
						<g>
							<defs>
								<rect id="SVGID_130_" width="800.1" height="600"/>
							</defs>
							<clipPath id="SVGID_131_">
								<use xlink:href="#SVGID_130_"  style="overflow:visible;"/>
							</clipPath>
							<g class="st99">
								<g>
									<path class="st64" d="M237,104.5c1.9,0,1.9-3,0-3S235.1,104.5,237,104.5L237,104.5z"/>
								</g>
							</g>
						</g>
						<g>
							<defs>
								<rect id="SVGID_132_" width="800.1" height="600"/>
							</defs>
							<clipPath id="SVGID_133_">
								<use xlink:href="#SVGID_132_"  style="overflow:visible;"/>
							</clipPath>
							<g class="st100">
								<g>
									<path class="st64" d="M207,163.5c1.9,0,1.9-3,0-3S205.1,163.5,207,163.5L207,163.5z"/>
								</g>
							</g>
						</g>
						<g>
							<defs>
								<rect id="SVGID_134_" width="800.1" height="600"/>
							</defs>
							<clipPath id="SVGID_135_">
								<use xlink:href="#SVGID_134_"  style="overflow:visible;"/>
							</clipPath>
							<g class="st101">
								<g>
									<path class="st64" d="M200,186.5c1.9,0,1.9-3,0-3S198.1,186.5,200,186.5L200,186.5z"/>
								</g>
							</g>
						</g>
						<g>
							<defs>
								<rect id="SVGID_136_" width="800.1" height="600"/>
							</defs>
							<clipPath id="SVGID_137_">
								<use xlink:href="#SVGID_136_"  style="overflow:visible;"/>
							</clipPath>
							<g class="st102">
								<g>
									<path class="st64" d="M352.8,66.8c1.9,0,1.9-3,0-3C350.8,63.8,350.8,66.8,352.8,66.8L352.8,66.8z"/>
								</g>
							</g>
						</g>
						<g>
							<defs>
								<rect id="SVGID_138_" width="800.1" height="600"/>
							</defs>
							<clipPath id="SVGID_139_">
								<use xlink:href="#SVGID_138_"  style="overflow:visible;"/>
							</clipPath>
							<g class="st103">
								<g>
									<path class="st64" d="M243,95.5c1.9,0,1.9-3,0-3S241.1,95.5,243,95.5L243,95.5z"/>
								</g>
							</g>
						</g>
						<g>
							<defs>
								<rect id="SVGID_140_" width="800.1" height="600"/>
							</defs>
							<clipPath id="SVGID_141_">
								<use xlink:href="#SVGID_140_"  style="overflow:visible;"/>
							</clipPath>
							<g class="st104">
								<g>
									<path class="st64" d="M255.5,70c1.9,0,1.9-3,0-3S253.6,70,255.5,70L255.5,70z"/>
								</g>
							</g>
						</g>
						<g>
							<defs>
								<rect id="SVGID_142_" width="800.1" height="600"/>
							</defs>
							<clipPath id="SVGID_143_">
								<use xlink:href="#SVGID_142_"  style="overflow:visible;"/>
							</clipPath>
							<g class="st105">
								<g>
									<path class="st64" d="M71,105.5c1.9,0,1.9-3,0-3S69.1,105.5,71,105.5L71,105.5z"/>
								</g>
							</g>
						</g>
						<g>
							<defs>
								<rect id="SVGID_144_" width="800.1" height="600"/>
							</defs>
							<clipPath id="SVGID_145_">
								<use xlink:href="#SVGID_144_"  style="overflow:visible;"/>
							</clipPath>
							<g class="st106">
								<g>
									<path class="st64" d="M58,152.5c1.9,0,1.9-3,0-3S56.1,152.5,58,152.5L58,152.5z"/>
								</g>
							</g>
						</g>
						<g>
							<defs>
								<rect id="SVGID_146_" width="800.1" height="600"/>
							</defs>
							<clipPath id="SVGID_147_">
								<use xlink:href="#SVGID_146_"  style="overflow:visible;"/>
							</clipPath>
							<g class="st107">
								<g>
									<path class="st64" d="M29,121.5c1.9,0,1.9-3,0-3S27.1,121.5,29,121.5L29,121.5z"/>
								</g>
							</g>
						</g>
						<g>
							<defs>
								<rect id="SVGID_148_" width="800.1" height="600"/>
							</defs>
							<clipPath id="SVGID_149_">
								<use xlink:href="#SVGID_148_"  style="overflow:visible;"/>
							</clipPath>
							<g class="st108">
								<g>
									<path class="st64" d="M52,88.5c1.9,0,1.9-3,0-3S50.1,88.5,52,88.5L52,88.5z"/>
								</g>
							</g>
						</g>
						<g>
							<defs>
								<rect id="SVGID_150_" width="800.1" height="600"/>
							</defs>
							<clipPath id="SVGID_151_">
								<use xlink:href="#SVGID_150_"  style="overflow:visible;"/>
							</clipPath>
							<g class="st109">
								<g>
									<path class="st64" d="M773,101.5c1.9,0,1.9-3,0-3S771.1,101.5,773,101.5L773,101.5z"/>
								</g>
							</g>
						</g>
						<g>
							<defs>
								<rect id="SVGID_152_" width="800.1" height="600"/>
							</defs>
							<clipPath id="SVGID_153_">
								<use xlink:href="#SVGID_152_"  style="overflow:visible;"/>
							</clipPath>
							<g class="st110">
								<g>
									<path class="st64" d="M782,63.5c1.9,0,1.9-3,0-3S780.1,63.5,782,63.5L782,63.5z"/>
								</g>
							</g>
						</g>
						<g>
							<defs>
								<rect id="SVGID_154_" width="800.1" height="600"/>
							</defs>
							<clipPath id="SVGID_155_">
								<use xlink:href="#SVGID_154_"  style="overflow:visible;"/>
							</clipPath>
							<g class="st111">
								<g>
									<path class="st64" d="M781.3,53.2c-0.3-0.7-0.7-1.3-1-2c-0.4-0.7-1.4-0.9-2.1-0.5c-0.7,0.4-0.9,1.3-0.5,2.1
										c0.3,0.7,0.7,1.3,1,2c0.4,0.7,1.4,0.9,2.1,0.5C781.5,54.9,781.7,54,781.3,53.2L781.3,53.2z"/>
								</g>
							</g>
						</g>
						<g>
							<defs>
								<rect id="SVGID_156_" width="800.1" height="600"/>
							</defs>
							<clipPath id="SVGID_157_">
								<use xlink:href="#SVGID_156_"  style="overflow:visible;"/>
							</clipPath>
							<g class="st112">
								<g>
									<path class="st64" d="M750,50.5c1.9,0,1.9-3,0-3S748.1,50.5,750,50.5L750,50.5z"/>
								</g>
							</g>
						</g>
						<g>
							<defs>
								<rect id="SVGID_158_" width="800.1" height="600"/>
							</defs>
							<clipPath id="SVGID_159_">
								<use xlink:href="#SVGID_158_"  style="overflow:visible;"/>
							</clipPath>
							<g class="st113">
								<g>
									<path class="st64" d="M779,19.5c1.9,0,1.9-3,0-3S777.1,19.5,779,19.5L779,19.5z"/>
								</g>
							</g>
						</g>
						<g>
							<defs>
								<rect id="SVGID_160_" width="800.1" height="600"/>
							</defs>
							<clipPath id="SVGID_161_">
								<use xlink:href="#SVGID_160_"  style="overflow:visible;"/>
							</clipPath>
							<g class="st114">
								<g>
									<path class="st64" d="M786,17.5c1.9,0,1.9-3,0-3S784.1,17.5,786,17.5L786,17.5z"/>
								</g>
							</g>
						</g>
						<g>
							<defs>
								<rect id="SVGID_162_" width="800.1" height="600"/>
							</defs>
							<clipPath id="SVGID_163_">
								<use xlink:href="#SVGID_162_"  style="overflow:visible;"/>
							</clipPath>
							<g class="st115">
								<g>
									<path class="st64" d="M751,16.5c1.9,0,1.9-3,0-3S749.1,16.5,751,16.5L751,16.5z"/>
								</g>
							</g>
						</g>
						<g>
							<defs>
								<rect id="SVGID_164_" width="800.1" height="600"/>
							</defs>
							<clipPath id="SVGID_165_">
								<use xlink:href="#SVGID_164_"  style="overflow:visible;"/>
							</clipPath>
							<g class="st116">
								<g>
									<path class="st64" d="M747,8.5c1.9,0,1.9-3,0-3S745.1,8.5,747,8.5L747,8.5z"/>
								</g>
							</g>
						</g>
						<g>
							<defs>
								<rect id="SVGID_166_" width="800.1" height="600"/>
							</defs>
							<clipPath id="SVGID_167_">
								<use xlink:href="#SVGID_166_"  style="overflow:visible;"/>
							</clipPath>
							<g class="st117">
								<g>
									<path class="st64" d="M768,37.5c1.9,0,1.9-3,0-3S766.1,37.5,768,37.5L768,37.5z"/>
								</g>
							</g>
						</g>
						<g>
							<defs>
								<rect id="SVGID_168_" width="800.1" height="600"/>
							</defs>
							<clipPath id="SVGID_169_">
								<use xlink:href="#SVGID_168_"  style="overflow:visible;"/>
							</clipPath>
							<g class="st118">
								<g>
									<path class="st64" d="M750,32.5c1.9,0,1.9-3,0-3S748.1,32.5,750,32.5L750,32.5z"/>
								</g>
							</g>
						</g>
						<g>
							<defs>
								<rect id="SVGID_170_" width="800.1" height="600"/>
							</defs>
							<clipPath id="SVGID_171_">
								<use xlink:href="#SVGID_170_"  style="overflow:visible;"/>
							</clipPath>
							<g class="st119">
								<g>
									<path class="st64" d="M724,31.5c1.9,0,1.9-3,0-3S722.1,31.5,724,31.5L724,31.5z"/>
								</g>
							</g>
						</g>
						<g>
							<defs>
								<rect id="SVGID_172_" width="800.1" height="600"/>
							</defs>
							<clipPath id="SVGID_173_">
								<use xlink:href="#SVGID_172_"  style="overflow:visible;"/>
							</clipPath>
							<g class="st120">
								<g>
									<path class="st64" d="M687,51.5c1.9,0,1.9-3,0-3S685.1,51.5,687,51.5L687,51.5z"/>
								</g>
							</g>
						</g>
					</g>
					<g class="st40">
						<g>
							<g>
								<path class="st25" d="M379.9,282.3l-8.1-8.4c-0.5-0.5-1.2-0.9-1.9-1.2c-23.6-8-43.7-24.3-58.4-47.4
									c-11.3-17.9-15.4-33.4-15.5-34l0,0c-0.3-1-0.2-2,0.2-3l0,0c22.4-55.1,2.4-112.3,2.2-112.9l0,0c-0.7-2,0-4.2,1.7-5.4
									l20.6-14.6c1.6-1.1,3.7-1.2,5.4-0.1l0,0c5.6,3.8,11.2,5.7,16.7,5.7c16.7,0,28.1-17.8,28.3-18l0,0c0.9-1.4,2.4-2.2,4-2.2l0,0
									h30.8c1.6,0,3.1,0.8,4,2.2l0,0c0.1,0.2,11.6,17.9,28.2,17.9c5.5,0,11.1-1.9,16.7-5.7l0,0c1.6-1.1,3.8-1.1,5.4,0.1L480.7,70
									c1.7,1.2,2.4,3.4,1.7,5.4l0,0c-0.2,0.6-20.1,57.9,2.2,112.9l0,0c0.4,0.9,0.5,2,0.2,3l0,0c-0.2,0.7-4.2,16.1-15.5,34
									c-14.6,23.1-34.8,39.4-58.4,47.4c-0.7,0.2-1.4,0.6-1.9,1.2l-8.1,8.4c-0.9,0.9-2.1,1.4-3.4,1.4h-14.2
									C382,283.7,380.8,283.2,379.9,282.3z"/>
								<path class="st41" d="M479.2,189.8c0,0-15.4,60.1-72.2,77.9l-9.6,9.9h-14.1l-9.6-9.9c-56.8-17.8-72.2-77.9-72.2-77.9
									c23.1-56.8,2.3-115,2.3-115l20.3-14.4c29.8,20.2,51-13.5,51-13.5h30.4c0,0,21.2,33.7,51,13.5l20.3,14.4
									C476.9,74.9,456.1,133.1,479.2,189.8z"/>
								<path class="st121" d="M472.6,158.3c0.1,0,0.1,0.1,0.2,0.1c1,0,1.4-0.9,0.9-1.5c-0.9-1.3-0.5-1.6-1.4-2.9s-1.2-1.1-2.1-2.4
									c0,0-0.2,0.1-0.2,0c-1.6-1.9-1.4-2-3-3.9c-0.1-0.1-0.4-0.1-0.4-0.2c-0.8-1.9-0.8-1.9-1.6-3.9c-0.8-1.9-0.1-2.2-0.9-4.1
									c-0.8-1.9-1.1-1.8-1.9-3.8c-0.8-1.9-0.5-2.1-1.3-4s-1.7-1.6-2.5-3.5c-0.1-0.4-0.2-1-0.7-1c-2.5,0-2.5-0.2-4.9-0.2
									c-0.7,0-1.6-0.3-1.5-1c0.3-1.9,0.7-1.8,1-3.7c0.3-1.9,0.5-1.8,0.7-3.7c0.1-0.8-1.5-1.7-2.4-1.3c-0.9,0.5-0.7,0.9-1.6,1.3
									c-0.8,0.4-2.1-0.3-2.1-1.1c0-1.9,0.3-1.9,0.3-3.8c0-0.8-0.9-0.8-1.7-0.5c-1,0.4-1.4-0.4-2.4,0c-0.9,0.4-1.5,0.2-1.3-0.6
									c0.6-2.7-0.1-2.8,0.5-5.5c0.1-0.5,0.2-1-0.4-1.1c-1.4-0.4-1.3-0.8-2.7-1.1c-1.4-0.4-1.7,0.6-3.1,0.2c-0.6-0.1-0.5-1-0.4-1.5
									c0.4-2,0-2.1,0.4-4.2c0.2-0.9-0.7-1.1-1.6-0.6c-1.7,1-1.7,0.9-3.4,2c-0.9,0.5-2.7-0.5-2.6-1.4c0.3-1.9,0.7-1.9,1-3.8
									c0.1-0.8-1-1.9-1.9-1.5c-1.5,0.6-1.2,1.4-2.6,1.9s-1.7,0-3.2,0.5c-0.9,0.4-1.8-0.1-1.6-0.9c0.4-1.4,0.2-1.5,0.5-2.9
									c0.2-0.9-0.8-1.6-1.7-1.1c-1.5,0.7-1.5,0.6-3,1.3c-0.8,0.3-1.5,0.1-1.7-0.6c-0.3-1.6-0.2-1.7-0.6-3.3s-1-1.5-1.3-3.2
									c-0.2-0.8-0.9-1.2-1.6-0.6c-1.2,0.9-0.9,1.3-2.1,2.2c-0.7,0.6-2.3-0.1-2.5-0.9c-0.4-1.7-0.4-1.7-0.8-3.4
									c-0.2-0.9-1.3-0.9-1.9-0.2c-0.2,0.2-0.8-0.3-1-0.1c-0.6,0.6-1.7,0.9-2.1,0.2c-1-2-0.8-2.1-1.8-4.1c-0.4-0.8-1.9-0.9-2.3-0.1
									c-0.2,0.3,0.1,0.4-0.1,0.7c-0.4,0.8-2.1,0.8-2.5,0c-1-1.7-0.7-1.9-1.7-3.6c-0.5-0.8-2.4-0.9-2.8-0.1c-1,1.7-0.2,2.2-1.2,3.9
									c-0.5,0.8-2.1,0.5-2.5-0.3c-0.2-0.3-0.4-0.2-0.5-0.4c-0.5-0.8-2.1-1-2.6-0.2c-1,2-0.2,2.4-1.2,4.4c-0.4,0.7-1.8,0.4-2.4-0.2
									c-0.2-0.2-0.1-0.3-0.3-0.5c-0.7-0.7-2.7-0.3-2.9,0.6c-0.4,1.7,0.1,1.8-0.3,3.5c-0.2,0.8-1.4,1.1-2.1,0.5
									c-1.2-0.9-1.4-0.7-2.6-1.6c-0.7-0.6-1.7-0.5-1.8,0.4c-0.3,1.6,0,1.7-0.3,3.4s-0.4,1.6-0.7,3.3c-0.1,0.7-1.6,1.3-2.4,1
									c-1.5-0.7-1.1-1.5-2.6-2.1c-0.9-0.4-2.7,0.8-2.4,1.6c0.4,1.4,0.4,1.4,0.8,2.8c0.2,0.8-0.4,1.3-1.4,0.9
									c-1.5-0.6-1.4-0.8-2.9-1.3c-1.5-0.6-1.5-0.6-2.9-1.1c-0.9-0.3-2.4,0.7-2.2,1.5c0.3,1.9,0.2,2,0.5,3.9
									c0.2,0.9-0.5,1.2-1.3,0.7c-1.7-1-2-0.5-3.7-1.6c-0.9-0.6-2.2-0.1-2,0.8c0.4,2,1,1.9,1.4,4c0.1,0.5-0.8,0.6-1.4,0.8
									c-1.4,0.4-1.2,1.3-2.6,1.6c-1.4,0.4-1.5-0.1-3,0.2c-0.6,0.2-1.3,0.8-1.2,1.3c0.6,2.7,0.6,2.6,1.2,5.3
									c0.2,0.8-0.5,1.2-1.4,0.9c-1-0.4-1.1-0.2-2.1-0.6c-0.8-0.3-2.1,0.1-2.1,0.9c0,1.9,0.6,1.9,0.6,3.8c0,0.8-1.5,1.6-2.4,1.2
									c-0.9-0.5-0.9-0.5-1.9-0.9c-0.9-0.4-2.1-0.1-1.9,0.7c0.3,1.9,0,1.9,0.3,3.8s0.5,1.8,0.8,3.7c0.1,0.6-0.3,1.3-1,1.3
									c-2.5,0-2.5-0.4-4.9-0.4c-0.6,0-1.5,0.3-1.7,0.8c-0.8,1.9-0.5,2.1-1.3,4s-0.7,2-1.5,3.9s-0.7,2-1.5,3.9s-0.5,2.1-1.3,4
									s-1.2,1.8-2,3.7c0,0.1-0.4,0-0.4,0c-1.6,1.9-1,2.4-2.5,4.3h-0.1c-0.9,1.3-1.4,1-2.2,2.4c-0.9,1.3-0.7,1.4-1.6,2.8
									c-0.5,0.7,0.3,1.3,1.2,1.3c0.1,0,0.1,0.6,0.2,0.6c1,0,1.8,0.7,1.4,1.3c-1.2,1.7-1.8,1.4-2.9,3.1c-0.5,0.7,0.4,1.4,1.4,1.4
									c0.5,0,0.5,0.3,1.1,0.3c0.9,0,1.2,0.6,0.8,1.3c-0.8,1.2-0.5,1.4-1.3,2.6s-0.6,1.3-1.4,2.5c-0.5,0.7,0.2,1.6,1.2,1.5
									c1.2-0.1,1.1-0.4,2.3-0.6c0.9-0.1,1.4,0.7,1.2,1.5c-0.7,1.9-0.1,2.1-0.8,4s-1.2,1.7-1.9,3.6c-0.2,0.7,0.5,1.7,1.4,1.7
									s0.9-0.1,1.9-0.1c0.8,0,1.2,0.3,1.1,0.9c-0.3,1.9-0.3,1.9-0.6,3.9c-0.3,1.9,0.3,2,0,3.9c-0.1,0.9,0.7,1.5,1.6,1
									c0.5-0.3,0.3-0.7,0.8-1c0.9-0.5,2.6,0.5,2.4,1.4c-0.5,2-0.5,2-1,4s-0.9,1.9-1.4,3.9c-0.2,0.9,1.1,1.4,2,0.9
									c0.6-0.3,1,0.3,1.6,0c0.8-0.4,1.7-0.3,1.7,0.5c0,2.2,0.5,2.2,0.5,4.4c0,0.9,1.2,1.7,2,1c0.3-0.2-0.2-0.8,0-1
									c0.8-0.7,2.6,0.1,2.5,1.1c-0.1,1.9-0.8,1.8-0.9,3.7s0.7,1.9,0.6,3.8c-0.1,1.9-0.3,1.8-0.4,3.7c-0.1,0.9,0.8,1.2,1.6,0.6
									c0.1-0.1,0.1-0.1,0.2-0.2c0.9-0.6,2.1,0.2,1.9,1.2c-0.3,1.2,0.6,1.4,0.3,2.6c-0.2,0.8,0.4,1.8,1.4,1.5
									c0.9-0.3,0.7-0.8,1.6-1.1c0.8-0.3,2,0.3,2,1c-0.1,1.8-0.6,1.7-0.6,3.5c-0.1,1.8,0.2,1.8,0.2,3.5c0,0.8,0.8,0.9,1.7,0.6
									c0.5-0.2,0.7,0.2,1.2,0c0.8-0.4,2.1,0.1,2.1,0.8c0,1.5,0,1.5,0,3s0.1,1.5,0.1,3c0,0.9,1.1,1.4,1.9,0.8
									c1.1-1,0.8-1.3,1.9-2.3c0.7-0.6,2.5,0,2.6,0.9c0.3,2.6-0.3,2.7,0,5.3c0.1,1,2.3,1.3,2.9,0.4l-0.4-0.3c0.5-0.8,2.8-0.5,3,0.4
									c0.6,2,0.2,2.1,0.8,4c0.2,0.7,1.4,1.3,2.1,0.9c0.9-0.5,0.8-0.6,1.7-1.1c0.7-0.4,1.8-0.3,2.1,0.3c0.6,1.5,0.3,1.6,0.8,3.2
									c0.2,0.7,1,0.6,1.7,0.2c0.1-0.1,0.5,0.6,0.6,0.6c0.7-0.4,1.7-0.4,1.9,0.4c0.3,1.5-0.1,1.6,0.2,3.2c0.3,1.6,0.6,1.5,0.9,3
									c0.2,0.8,1.3,1,2,0.5c0.2-0.2,0.2-0.2,0.5-0.3c0.9-0.6,2.5,0.2,2.2,1.1c-0.4,1.6-0.9,1.5-1.2,3.2c-0.2,0.7,1,1.4,1.9,1.2
									c2.5-0.5,2.5-0.5,5-1c0.7-0.1,0.9,0.3,1.1,0.9c0.4,1.4,0.8,1.3,1.3,2.7c0.1,0.5,0.7,0.9,1.2,0.9c1.6,0,1.6,0.1,3.2,0.1
									c0.6,0,1.1,0.1,1.2,0.6c0.4,1.4,0.1,1.5,0.5,2.8c0.4,1.4,1.1,1.2,1.5,2.6c0.2,0.8,1.2,1.5,1.9,1c2.3-1.6,2.1-1.8,4.4-3.4
									c0.5-0.3,1.2-0.6,1.6-0.3c2.3,1.6,2.4,1.4,4.7,3.1c0.7,0.5,2,0.6,2.2-0.1c0.4-1.4-0.2-1.5,0.2-2.9c0.4-1.4,0.4-1.4,0.8-2.7
									c0.1-0.5,0.8-0.9,1.4-0.9c1.6,0,1.6,0.2,3.2,0.2c0.6,0,1.2-0.3,1.4-0.8c0.4-1.4,0.6-1.4,1-2.8c0.2-0.5,0.6-1.1,1.2-1
									c2.5,0.5,2.4,1,4.9,1.5c0.9,0.2,2.1-0.9,2-1.6c-0.4-1.6-0.5-1.6-0.8-3.3c-0.2-1,1.1-1.9,2-1.2c0.2,0.2-0.2,0.8,0,0.9
									c0.7,0.5,2.5,0,2.6-0.8c0.3-1.5-0.1-1.6,0.2-3.2c0.3-1.5,0-1.6,0.3-3.1c0.2-0.7,1.6-1.1,2.3-0.7c0.1,0.1,0.1,0.2,0.2,0.2
									c0.7,0.4,1.6,0,1.9-0.6c0.5-1.5,0.8-1.4,1.4-3c0.2-0.7,0.7-0.6,1.4-0.3c0.9,0.5,1.1,0.2,2,0.7c0.7,0.4,1.4-0.1,1.6-0.8
									c0.6-2,1.2-1.8,1.8-3.7c0.3-0.9,1.9-1.4,2.4-0.6l-0.2,0.1c0.6,0.9,1.7,0.7,1.8-0.3c0.3-2.6,0.5-2.6,0.8-5.3
									c0.1-0.9,1.7-1.4,2.5-0.7c1.1,1,1,1.1,2.1,2.1c0.8,0.7,2.5,0.2,2.5-0.7c0-1.5,0-1.5,0-3s0.1-1.5,0.1-3
									c0-0.8,0.3-0.8,1.2-0.5c0.5,0.2,0.7-0.2,1.2,0c0.8,0.4,1.7-0.1,1.7-0.9c0-1.8-0.3-1.8-0.3-3.5c0-1.8,0.5-1.8,0.4-3.5
									c0-0.7,0.7-1.1,1.6-0.8s0.9,0.1,1.8,0.4c0.9,0.3,1.8-0.3,1.6-1.1c-0.3-1.2-0.5-1.1-0.8-2.3c-0.2-0.9,1.6-1.8,2.5-1.1
									c0.1,0.1-0.1,0.3,0.1,0.4c0.8,0.6,1.8-0.1,1.7-1c-0.1-1.9,0.6-1.9,0.5-3.8c-0.1-1.9-0.5-1.8-0.6-3.7s-0.6-1.8-0.7-3.7
									c-0.1-0.9,1.4-1.2,2.3-0.5c0.3,0.2,0.8-0.4,1-0.2c0.8,0.6,1.7,0.4,1.7-0.5c0-2.2-0.2-2.2-0.2-4.4c0-0.8,1.6-1.7,2.5-1.3
									c0.6,0.3,0.2,1.1,0.8,1.4c0.9,0.5,1.9-0.5,1.7-1.4c-0.5-2,0.2-2.2-0.3-4.2s-0.9-1.9-1.3-3.9c-0.2-0.9,1.4-1.9,2.3-1.3
									c0.5,0.3,0.5,0.2,1,0.5c0.9,0.5,1.6,0.3,1.5-0.6c-0.3-1.9,0-2-0.3-3.9s0-2-0.4-3.9c-0.1-0.6,0.2-0.8,1-0.8
									c0.9,0,0.9-0.6,1.9-0.6c0.8,0,1.2-0.3,1-1c-0.7-1.9-0.4-2-1.1-3.9s-0.9-1.8-1.6-3.7c-0.3-0.7,0.6-1.9,1.5-1.8
									c1.2,0.1,1.1,0.6,2.3,0.8c1,0.1,2-0.9,1.5-1.7c-0.8-1.2-0.8-1.2-1.5-2.4c-0.8-1.2-1.2-0.9-2-2.1c-0.4-0.7,0.4-1.6,1.3-1.6
									c0.5,0,0.5,0.1,1.1,0.1c1,0,1.9-1.2,1.4-1.8c-1.2-1.7-1.7-1.4-2.8-3.2C470.9,159.2,471.7,158.3,472.6,158.3z"/>
							</g>
							<line class="st122" x1="447.5" y1="61.5" x2="447.5" y2="77.8"/>
							<line class="st122" x1="452" y1="61.5" x2="452" y2="82.5"/>
							<line class="st122" x1="324.2" y1="57.8" x2="324.2" y2="76.5"/>
							<line class="st122" x1="328.1" y1="69.6" x2="328.1" y2="80.6"/>
							<line class="st122" x1="315.2" y1="87.6" x2="315.2" y2="98.6"/>
						</g>
						<g>
							<path class="st123" d="M470.6,142.2c0.1,0,0.1-0.8,0.2-0.8c0.9,0,1.5-0.5,1-1.3c-0.9-1.4-0.7-1.5-1.6-3s-1.1-1.3-2-2.8
								c0,0,0,0-0.1-0.1c-1.5-2.1-1.2-2.3-2.8-4.3c-0.1-0.1,0.2-0.3,0.2-0.4c-0.6-1.7-1.5-1.4-2.2-3.2c-0.6-1.7-0.1-1.9-0.7-3.7
								c-0.6-1.7-0.9-1.7-1.5-3.4c-0.6-1.7-0.1-1.9-0.8-3.7c-0.6-1.8-1.5-1.4-2.2-3.2s0.1-2-0.5-3.8c-0.1-0.5-0.9-1.1-1.5-1.1
								c-2.4,0-2.4-0.1-4.8-0.1c-0.7,0-1.3-0.1-1.2-0.8c0.3-2,0.3-2,0.6-4.1s-0.1-2.1,0.2-4.1c0.1-0.9-0.6-1.5-1.5-1
								s-0.7,0.9-1.6,1.4c-0.8,0.4-2.5-0.5-2.5-1.4c0-2.1,0-2.1,0-4.1c0-0.8-0.8-1.8-1.6-1.5c-1,0.4-1,0.5-2,1
								c-0.9,0.4-1.4,0.2-1.2-0.7c0.6-2.9,0.4-2.9,1-5.8c0.1-0.6-0.3-1.5-0.9-1.7c-2.8-0.8-2.8-0.8-5.5-1.6
								c-0.6-0.2-0.7-0.2-0.6-0.8c0.4-2.2,0.6-2.2,1-4.4c0.2-1-1.7-2-2.6-1.4c-1.6,1.1-1.3,1.6-2.9,2.8c-0.9,0.6-2.1-0.3-1.9-1.3
								c0.3-2.1-0.2-2.2,0.1-4.3c0.1-0.9-0.6-2-1.5-1.6c-1.4,0.6-1,1.5-2.5,2.2c-1.4,0.6-1.6,0.1-3.1,0.7c-0.9,0.4-1.5-0.2-1.3-1.1
								c0.3-1.5,0.3-1.5,0.7-3.1c0.2-0.9-1.3-1.9-2.2-1.5c-1.5,0.7-1.3,1-2.8,1.7c-0.7,0.4-1.3-0.1-1.5-0.9c-0.3-1.8-1-1.7-1.3-3.4
								c-0.3-1.8-0.4-1.8-0.7-3.5c-0.2-0.9-0.7-1-1.4-0.4c-1.1,1-1.6,0.5-2.7,1.6c-0.7,0.6-1.2,0.4-1.4-0.5c-0.4-1.8-0.6-1.8-1-3.6
								c-0.2-0.9-1.6-1.1-2.2-0.3c-0.2,0.2-0.5,0-0.7,0.2c-0.6,0.7-1.1,0.5-1.4-0.3c-1-2.2-1.3-2-2.3-4.2c-0.4-0.9-2-0.9-2.4,0
								c-0.2,0.3-0.1,0.3-0.3,0.6c-0.4,0.8-2.1,1-2.5,0.2c-1-1.9-0.5-2.1-1.5-4c-0.4-0.8-2.3-1-2.8-0.2c-1,1.9-0.3,2.2-1.3,4.1
								c-0.4,0.8-2.2,0.8-2.6-0.1c-0.2-0.3,0.4-0.6,0.2-0.9c-0.4-0.9-2.3-0.7-2.7,0.1c-1,2.2-0.6,2.3-1.6,4.5
								c-0.4,0.8-1.5,0.5-2-0.1c-0.2-0.2-0.8,0.3-1,0c-0.6-0.8-2.1-0.8-2.3,0.2c-0.4,1.8,0.4,2,0,3.8c-0.2,0.9-1.7,1.1-2.4,0.5
								c-1.1-1-0.9-1.3-2-2.4c-0.7-0.6-2.3,0-2.4,0.9c-0.3,1.8-0.1,1.8-0.4,3.6s-0.5,1.7-0.9,3.5c-0.1,0.8-1.1,1.4-1.8,1
								c-1.5-0.7-1.2-1.2-2.7-1.9c-0.9-0.5-1.7,0.4-1.5,1.3c0.3,1.5-0.2,1.7,0.1,3.2c0.2,0.9-0.5,1.3-1.4,0.9
								c-1.4-0.6-1.5-0.5-2.9-1.2c-1.4-0.6-1.5-0.5-2.9-1.1c-0.9-0.4-2.1,0.5-1.9,1.4c0.3,2.1,0.9,2,1.3,4.1c0.2,1-1.4,1.6-2.3,1
								c-1.6-1.1-1.9-0.7-3.5-1.8c-0.9-0.6-1.6-0.3-1.4,0.7c0.4,2.2,0.3,2.2,0.7,4.4c0.1,0.6-0.5,0.9-1.1,1
								c-2.8,0.8-2.6,1.3-5.4,2.1c-0.6,0.2-1.5,0.5-1.4,1.1c0.6,2.9,1,2.8,1.6,5.7c0.2,0.9-0.9,2-1.8,1.6c-1-0.4-0.7-1.2-1.7-1.6
								c-0.8-0.4-1.5,0.6-1.5,1.4c0,2.1-0.3,2.1-0.3,4.1c0,0.9-0.9,0.9-1.7,0.5c-0.9-0.5-1.3,0.3-2.2-0.2c-0.9-0.5-1.5-0.2-1.4,0.7
								c0.3,2,0.3,2,0.6,4c0.3,2,0.3,2,0.5,4.1c0.1,0.7-0.8,0.9-1.6,0.9c-2.4,0-2.4,0.9-4.8,0.9c-0.5,0-1.5-0.4-1.6,0.1
								c-0.6,1.7-0.1,1.9-0.8,3.7c-0.6,1.7-0.4,1.8-1.1,3.6c-0.6,1.7-1.2,1.6-1.8,3.3c-0.6,1.7-0.4,1.8-1,3.6
								c-0.6,1.8-0.2,1.9-0.9,3.7c-0.6,1.8-1.1,1.6-1.8,3.3c0,0.1,0.2,0.4,0.1,0.5c-1.5,2.1-1.5,2.1-3,4.1l0.1,0.1
								c-0.9,1.4-1.3,1.2-2.2,2.6s-0.5,1.7-1.3,3.1c-0.4,0.7-0.2,1.3,0.7,1.3c0.1,0,0.1,0.7,0.2,0.7c0.9,0,1.5,0.4,1,1.1
								c-1.1,1.9-0.7,2.2-1.8,4c-0.5,0.7-0.3,1,0.6,1c0.5,0,0.5,0.4,1,0.4c0.9,0,1.2,0.6,0.8,1.4c-0.8,1.3-0.6,1.4-1.4,2.7
								s-0.3,1.5-1.1,2.9c-0.5,0.8,0,1.6,1,1.5c1.2-0.2,1.1-0.6,2.2-0.8c0.9-0.1,1.3,1,1.1,1.8c-0.7,2.1-0.2,2.2-0.9,4.3
								c-0.7,2.1-1.1,1.9-1.8,4c-0.2,0.7,0.7,1.6,1.5,1.6c0.9,0,0.9-0.3,1.8-0.3c0.7,0,1.5,0.8,1.4,1.4c-0.3,2.1-0.3,2.1-0.6,4.2
								c-0.3,2.1-0.8,2-1.1,4.1c-0.1,1,1.4,1.6,2.3,1c0.5-0.3,0.5-0.3,1-0.6c0.9-0.6,1.7,0,1.5,1c-0.4,2.2,0,2.3-0.5,4.5
								c-0.4,2.2-0.5,2.2-1,4.4c-0.2,1,1.2,1.9,2.1,1.4c0.6-0.3,0.5-0.5,1.1-0.9c0.8-0.5,1.5,0,1.5,0.9c0,2.4,0.8,2.4,0.8,4.7
								c0,1,1.1,1.8,1.9,1.1c0.3-0.2,0.1-0.4,0.4-0.6c0.8-0.7,2.2-0.3,2.1,0.7c-0.1,2,0.1,2,0,4s-1,2-1.1,4s0.5,2.1,0.4,4.1
								c-0.1,1,0.9,1.4,1.7,0.8c0.1-0.1,0.1-0.1,0.2-0.1c0.9-0.7,2.2,0.1,2,1.2c-0.3,1.3-0.4,1.3-0.6,2.6c-0.2,0.9,1.1,1.9,2,1.6
								c0.9-0.3,0.7-0.8,1.5-1.1s1.4,0.4,1.4,1.2c0,1.9-0.1,1.9-0.1,3.8c0,1.9,0.1,1.9,0,3.8c0,0.9,1.1,1.1,1.9,0.6
								c0.5-0.3,0.9,0.5,1.4,0.2c0.8-0.4,1.2-0.2,1.2,0.6c0,1.6,0.5,1.6,0.5,3.3s0.4,1.6,0.4,3.3c0,1,0.9,1.5,1.6,0.7
								c1.1-1.1,1.2-1,2.3-2c0.7-0.7,2-0.3,2.1,0.6c0.3,2.9,0,2.9,0.3,5.8c0.1,1.1,2.4,1.6,3,0.6l-0.3-0.2c0.5-0.9,2.3-0.9,2.5,0.1
								c0.6,2.1-0.1,2.3,0.5,4.4c0.2,0.7,1.2,0.6,1.9,0.2c0.9-0.5,1-0.3,1.9-0.8c0.7-0.4,2.1-0.1,2.3,0.7c0.5,1.7,0.4,1.7,0.9,3.4
								c0.2,0.7,0.9,0.9,1.5,0.5c0.1-0.1,0.2,0.1,0.3,0c0.7-0.4,1.4,0,1.5,0.8c0.3,1.7,0.3,1.7,0.6,3.3s0.2,1.7,0.6,3.4
								c0.2,0.8,2.1,1.5,2.8,1c0.2-0.2-0.1-0.6,0.1-0.8c0.9-0.7,2.4,0.1,2.2,1.1c-0.4,1.8-0.1,1.8-0.5,3.6c-0.2,0.8,0.2,1.5,1.1,1.3
								c2.4-0.6,2.4-0.5,4.9-1.1c0.6-0.2,1.3,0,1.5,0.6c0.4,1.5,0.5,1.5,0.9,3c0.1,0.5,0.5,0.4,1.1,0.4c1.6,0,1.6,0.3,3.1,0.3
								c0.6,0,0.9,0.5,1,1c0.4,1.5,1,1.3,1.3,2.8s-0.4,1.7-0.1,3.2c0.2,0.8,1.7,1.1,2.4,0.5c2.2-1.8,1.9-2.2,4.1-3.9
								c0.5-0.4,1.1,0.3,1.6,0.7c2.2,1.8,2.7,1.1,4.9,2.9c0.7,0.6,1.4,0.5,1.6-0.4c0.4-1.5,0.2-1.5,0.6-3s0.3-1.5,0.6-3
								c0.1-0.5,1.1-0.3,1.6-0.3c1.6,0,1.6-0.9,3.1-0.9c0.6,0,1.3,0.1,1.4-0.3c0.4-1.5,0-1.7,0.4-3.2c0.2-0.6,1.1-1.2,1.8-1.1
								c2.4,0.6,2.4,0.5,4.9,1.1c0.9,0.2,1.2,0,1.1-0.8c-0.4-1.8,0-1.9-0.4-3.6c-0.2-1,0.9-1.5,1.8-0.8c0.2,0.2,0.2,0.2,0.4,0.4
								c0.7,0.6,1.7-0.1,1.9-1c0.3-1.7,0.4-1.6,0.8-3.3s0.6-1.6,0.9-3.3c0.2-0.8,1.1-1.3,1.8-0.9c0.1,0.1,0.3-0.2,0.4-0.2
								c0.7,0.4,1.4,0.5,1.7-0.2c0.5-1.7,0.7-1.6,1.3-3.3c0.2-0.7,0.8-0.9,1.4-0.4c0.9,0.5,1.2,0.1,2.1,0.6c0.7,0.4,1.6,0.3,1.8-0.4
								c0.6-2.1,0.6-2.1,1.2-4.2c0.3-1,1.3-1,1.8-0.1l0.5-0.3c0.6,1,2,0.8,2.1-0.3c0.3-2.9-0.1-2.9,0.2-5.8c0.1-1,1.6-1.2,2.3-0.5
								c1.1,1.1,1.2,0.9,2.3,2c0.8,0.7,1.7,0.3,1.7-0.8c0-1.6-0.1-1.6-0.1-3.3c0-1.6,0.6-1.6,0.6-3.3c0-0.9,0.8-1,1.6-0.6
								c0.5,0.3,0.6,0.1,1.1,0.4c0.8,0.4,1.7-0.3,1.6-1.2c0-1.9,0-1.9-0.1-3.8c0-1.9,0-1.9,0-3.8c0-0.8,1.2-1.9,2-1.6
								c0.9,0.3,0.8,0.4,1.7,0.7c0.9,0.3,2.1,0,2-0.9c-0.3-1.3-1.2-1.1-1.4-2.4c-0.2-1,1.5-1.8,2.4-1.1c0.1,0.1,0.2-0.1,0.3,0
								c0.8,0.6,1.5,0.2,1.4-0.7c-0.1-2,0.5-2.1,0.4-4.1s-0.2-2-0.4-4c-0.1-2-0.7-2-0.8-4c-0.1-1,1.5-1.3,2.3-0.6
								c0.3,0.2,0.3,0.2,0.6,0.4c0.8,0.7,2.8-0.1,2.8-1.1c0-2.4-0.7-2.4-0.7-4.7c0-0.9,1.2-1.4,2-0.9c0.6,0.3,0.7,0.2,1.3,0.6
								c0.9,0.5,2.2-0.1,2-1.1c-0.4-2.2-1.1-2.1-1.5-4.2c-0.4-2.2,0-2.3-0.4-4.5c-0.2-1,0.8-1.3,1.7-0.7c0.5,0.3,0.5,0.4,0.9,0.7
								c0.9,0.6,1.9-0.4,1.8-1.4c-0.3-2.1,0.2-2.2-0.1-4.3s-0.8-2-1.1-4.1c-0.1-0.7,0.9-0.9,1.7-0.9c0.9,0,0.9-0.7,1.8-0.7
								c0.8,0,1.7-0.5,1.4-1.2c-0.7-2.1-1.3-1.8-2-3.9c-0.7-2.1-0.8-2-1.4-4.1c-0.3-0.8,0.9-1.5,1.8-1.4c1.1,0.2,1.2,0,2.3,0.2
								c1,0.1,1.4-0.7,1-1.5c-0.8-1.3-0.6-1.4-1.3-2.7c-0.8-1.3-0.8-1.3-1.6-2.6c-0.4-0.7,0.3-2.1,1.2-2.1c0.5,0,0.5,0.3,1,0.3
								c0.9,0,1.6-1,1.2-1.7c-1.1-1.9-0.9-2-2.1-3.9C469.3,142.4,469.6,142.2,470.6,142.2z"/>
						</g>
						<g>
							<g>
								<g>
									<g>
										<polygon class="st124" points="421.7,107.5 421.9,109 414.7,114.2 406.8,119.8 398.8,125.2 390.8,130.5 390.1,130.7 
											382.1,125.2 374.4,119.4 366.4,114.1 359.1,109 359.4,107.9 363.3,108 363.9,107 363.6,103.9 364.7,103.1 365.6,103.8 
											366.4,103.4 367.7,95.2 369.4,95.1 369.6,97 370.9,97 375.4,89 376.9,89 378.8,93.5 380,93.6 382.9,82 383.9,81.9 
											385.1,84.4 386.5,84.4 389.8,73.5 391.4,73.4 394.4,84.4 396.1,84.4 397.2,81.9 398.4,82 401,93.5 402.2,93.5 404.4,89.1 
											405.3,89.1 410.1,97 410.9,96.9 411.9,95.2 412.8,95.3 414.3,103.5 415.6,104 416.6,103.4 417.5,104 416.9,107 
											417.7,107.9 										"/>
									</g>
								</g>
							</g>
						</g>
						<g>
							<g>
								<g>
									<g>
										<path class="st125" d="M478.2,92.4l-0.2,0.7l-14.1,45.8l-3.1,8.7c-0.4,1.6-1.1,3-1.9,4.4c-2,3-4.7,5.4-7.9,7l0,0
											c-3.3,1.7-7.1,2.6-11,2.4l-1.3-0.1c-9.9-0.6-18.1-7.8-19.8-17.5c-0.2-1.3-0.3-2.6-0.3-3.8c0-5.3,1.9-10.4,5.5-14.4
											l6.5-7.2L475.1,90C476.7,89,478.7,90.6,478.2,92.4z"/>
										<path class="st126" d="M477.9,93.1l-14.1,45.8l-3.1,8.7c-0.4,1.6-1.1,3-1.9,4.4c-1.8,3.1-4.6,5.6-7.9,7l0,0
											c-2.3,1.1-4.9,1.6-7.6,1.5h-1.1c-6.9-0.2-12.9-4.3-15.6-10.4c-0.5-1.1-0.9-2.3-1.2-3.5c-0.3-1.2-0.4-2.5-0.4-3.7
											c0-4.1,1.5-8.2,4.2-11.4c3.4-4,7.3-7.7,11.5-10.9l0.5-0.4l35.7-26.9C477.3,93.2,477.6,93.1,477.9,93.1z"/>
									</g>
									<path class="st127" d="M453.5,136.6c0,9.3-7.6,16.9-16.9,16.9c-3.8,0-7.2-1.2-10-3.3c-0.5-1.1-0.9-2.3-1.2-3.5
										c-0.3-1.2-0.4-2.5-0.4-3.7c0-4.1,1.5-8.2,4.2-11.4c3.4-4,7.3-7.7,11.5-10.9l0.5-0.4C448.3,122.4,453.5,128.9,453.5,136.6z"
										/>
								</g>
								<g>
									<g>
										<path class="st125" d="M305,92.4l0.2,0.7l14.1,45.8l3.1,8.7c0.4,1.6,1.1,3,1.9,4.4c2,3,4.7,5.4,7.9,7l0,0
											c3.3,1.7,7.1,2.6,11,2.4l1.3-0.1c9.9-0.6,18.1-7.8,19.8-17.5c0.2-1.3,0.3-2.6,0.3-3.8c0-5.3-1.9-10.4-5.5-14.4l-6.5-7.2
											L308,90C306.4,89,304.4,90.6,305,92.4z"/>
										<path class="st126" d="M305.2,93.1l14.1,45.8l3.1,8.7c0.4,1.6,1.1,3,1.9,4.4c1.8,3.1,4.6,5.6,7.9,7l0,0
											c2.3,1.1,4.9,1.6,7.6,1.5h1.1c6.9-0.2,12.9-4.3,15.6-10.4c0.5-1.1,0.9-2.3,1.2-3.5c0.3-1.2,0.4-2.5,0.4-3.7
											c0-4.1-1.5-8.2-4.2-11.4c-3.4-4-7.3-7.7-11.5-10.9l-0.5-0.4l-35.7-26.9C305.9,93.2,305.5,93.1,305.2,93.1z"/>
									</g>
									<path class="st127" d="M329.6,136.6c0,9.3,7.6,16.9,16.9,16.9c3.8,0,7.2-1.2,10-3.3c0.5-1.1,0.9-2.3,1.2-3.5
										c0.3-1.2,0.4-2.5,0.4-3.7c0-4.1-1.5-8.2-4.2-11.4c-3.4-4-7.3-7.7-11.5-10.9l-0.5-0.4C334.8,122.4,329.6,128.9,329.6,136.6z
										"/>
								</g>
							</g>
							<g>
								<g>
									<path class="st128" d="M428.2,177.9l-15.1,9c-1.4,0.8-1.6,2.9-0.3,3.9l4.3,3.4c3.9,3.1,5,8.6,2.5,12.9l-13.4,23.4l-9.4-2.1
										l-6.2-1.4l-6.2,1.4l-9.4,2.1l-13.4-23.4c-2.5-4.3-1.4-9.8,2.5-12.9l4.3-3.4c1.3-1,1.2-3-0.3-3.9l-15.1-9
										c-4.2-2.5-6-7.7-4.3-12.3l6.1-16.1l21.9,5.5l13.9,3.5l13.9-3.5l21.9-5.5l6.1,16.1C434.3,170.3,432.4,175.4,428.2,177.9z"/>
								</g>
								<g>
									<g>
										<path class="st129" d="M398.9,186.9c-0.5,0.8-0.6,2.9-0.1,3.9l1.6,3.4c1.4,3.1,1.8,8.6,0.9,12.9l-4.5,21.3l-6.2-1.4
											l-6.2,1.4l-4.5-21.3c-0.9-4.3-0.5-9.8,0.9-12.9l1.6-3.4c0.5-1,0.4-3-0.1-3.9l-5.5-9c-1.5-2.5-2.2-7.7-1.6-12.3l1.5-10.5
											l13.9,3.5l13.9-3.5l1.5,10.6c0.6,4.6,0,9.7-1.6,12.3L398.9,186.9z"/>
									</g>
								</g>
							</g>
							<g>
								<path class="st128" d="M391.6,261.8L391.6,261.8c-7.6,0-13.7-6.2-13.7-13.7v-13.7h27.5v13.7
									C405.3,255.7,399.1,261.8,391.6,261.8z"/>
								<path class="st130" d="M391.6,257.1c-5,0-9-4-9-9v-9h18v9C400.6,253.1,396.5,257.1,391.6,257.1z"/>
								<g>
									<g>
										<path class="st131" d="M382.5,245.3L382.5,245.3c-0.9,0-1.6-0.7-1.6-1.6v-1.2c0-0.9,0.7-1.6,1.6-1.6l0,0
											c0.9,0,1.6,0.7,1.6,1.6v1.2C384.1,244.6,383.4,245.3,382.5,245.3z"/>
										<path class="st131" d="M382.8,250.9L382.8,250.9c-0.9,0.1-1.7-0.5-1.8-1.4l-0.2-1.2c-0.1-0.9,0.5-1.7,1.4-1.8l0,0
											c0.9-0.1,1.7,0.5,1.8,1.4l0.2,1.2C384.3,250,383.7,250.8,382.8,250.9z"/>
										<path class="st131" d="M385.9,255.1L385.9,255.1c-0.7,0.6-1.7,0.6-2.3-0.1l-0.8-0.9c-0.6-0.7-0.6-1.7,0.1-2.3l0,0
											c0.7-0.6,1.7-0.6,2.3,0.1l0.8,0.9C386.6,253.5,386.6,254.5,385.9,255.1z"/>
									</g>
									<g>
										<path class="st131" d="M400.7,245.3L400.7,245.3c0.9,0,1.6-0.7,1.6-1.6v-1.2c0-0.9-0.7-1.6-1.6-1.6l0,0
											c-0.9,0-1.6,0.7-1.6,1.6v1.2C399,244.6,399.8,245.3,400.7,245.3z"/>
										<path class="st131" d="M400.4,250.9L400.4,250.9c0.9,0.1,1.7-0.5,1.8-1.4l0.2-1.2c0.1-0.9-0.5-1.7-1.4-1.8l0,0
											c-0.9-0.1-1.7,0.5-1.8,1.4l-0.2,1.2C398.8,250,399.5,250.8,400.4,250.9z"/>
										<path class="st131" d="M397.2,255.1L397.2,255.1c0.7,0.6,1.7,0.6,2.3-0.1l0.8-0.9c0.6-0.7,0.6-1.7-0.1-2.3l0,0
											c-0.7-0.6-1.7-0.6-2.3,0.1l-0.8,0.9C396.5,253.5,396.6,254.5,397.2,255.1z"/>
									</g>
								</g>
							</g>
							<g>
								<path class="st126" d="M388,168.3c-5,8.8-16.1,11.9-25,7c-8.8-5-11.9-16.1-7-25L388,168.3z"/>
								<path class="st126" d="M395.1,168.3c5,8.8,16.1,11.9,25,7s11.9-16.1,7-25L395.1,168.3z"/>
								<path class="st127" d="M395.1,168.3c3.9,6.8,12.5,9.3,19.4,5.4c6.8-3.9,9.3-12.5,5.4-19.4L395.1,168.3z"/>
								<path class="st127" d="M388,168.3c-3.9,6.8-12.5,9.3-19.4,5.4c-6.8-3.9-9.3-12.5-5.4-19.4L388,168.3z"/>
								<g>
									<g>
										<circle class="st132" cx="372" cy="165.8" r="5.3"/>
										<circle class="st133" cx="370.3" cy="164" r="1.8"/>
										<circle class="st133" cx="369.6" cy="167.8" r="1"/>
									</g>
									<g>
										<circle class="st132" cx="409.2" cy="165.8" r="5.3"/>
										<circle class="st133" cx="407.6" cy="164" r="1.8"/>
										<circle class="st133" cx="406.8" cy="167.8" r="1"/>
									</g>
								</g>
							</g>
							<path class="st128" d="M429.3,115.2c-3.6-4.3-9.9-5.1-14.4-1.9l-24.3,17.3l-24.3-17.3c-4.6-3.3-10.9-2.4-14.4,1.9
								c-1.6,1.9-2.5,4.3-2.5,6.8c0,0.7,0.1,1.4,0.2,2.1l4.6,23.3l36.3,21.1l36.3-21.1l4.6-23.3c0.1-0.7,0.2-1.4,0.2-2.1
								C431.7,119.5,430.9,117.1,429.3,115.2z"/>
							<path class="st134" d="M422.3,124.8c-2.9-3.5-8.1-4.2-11.8-1.5l-19.9,14.2l-19.9-14.2c-3.7-2.7-8.9-2-11.8,1.5
								c-1.3,1.6-2,3.6-2,5.6c0,0.6,0.1,1.1,0.2,1.7l3.8,19.1l29.8,17.3l29.8-17.3l3.8-19.1c0.1-0.6,0.2-1.1,0.2-1.7
								C424.3,128.4,423.6,126.4,422.3,124.8z"/>
							<path class="st135" d="M395.8,171.7l37.8-21.4c2.2-1.3,3-4.1,1.7-6.3l0,0c-1.3-2.2-4.1-3-6.3-1.7l-37.5,21.3L354,142.2
								c-2.2-1.3-5-0.5-6.3,1.7l0,0c-1.3,2.2-0.5,5,1.7,6.3l37.8,21.4c1.3,0.7,2.8,1.1,4.3,1.1l0,0
								C393.1,172.8,394.5,172.4,395.8,171.7z"/>
						</g>
						<g>
							<g>
								<path class="st131" d="M384.4,242.2c-1.4,0-2.8,0.1-4.2,0.1h-1H378c-0.8,0-1.6-0.1-2.4-0.2c-3.2-0.4-6.2-1.4-9-2.9
									c-5.6-3.1-9.9-8.2-11.9-14.2c-1-3-1.4-6.2-1.3-9.2l0.3-8.3v-1V206c0-0.2,0-0.4,0-0.6c0.1-0.9,0.2-1.7,0.4-2.6
									c0.5-1.7,1.4-3.2,2.5-4.4c2.3-2.4,5.8-3.6,8.8-2.9c0.4,0.1,0.6,0.4,0.5,0.8c-0.1,0.3-0.3,0.4-0.5,0.5l0,0
									c-2.6,0.7-4.6,2.1-5.8,4c-0.6,0.9-1,2-1.2,3c-0.1,0.5-0.1,1-0.1,1.6l0.1,2l0.3,8.3c0.1,2.6,0.5,4.9,1.4,7.2
									c1.8,4.5,5.2,8.3,9.4,10.6c2.1,1.1,4.4,1.8,6.8,2.2c0.6,0.1,1.2,0.1,1.8,0.2h0.9h1c1.4,0,2.8,0,4.2,0.1
									c1.7,0.1,3.1,1.5,3,3.2C387.4,240.8,386.1,242.2,384.4,242.2z"/>
							</g>
							<g>
								<path class="st131" d="M398.7,235.9c1.4,0,2.8-0.1,4.2-0.1h1h0.9c0.6,0,1.2-0.1,1.8-0.2c2.4-0.3,4.7-1,6.8-2.2
									c4.3-2.2,7.7-6,9.4-10.6c0.9-2.3,1.3-4.7,1.4-7.2l0.3-8.3l0.1-2c0-0.5,0-1.1-0.1-1.6c-0.2-1-0.6-2.1-1.2-3
									c-1.2-1.9-3.2-3.4-5.8-4l0,0c-0.4-0.1-0.6-0.5-0.5-0.8s0.3-0.4,0.5-0.5c3-0.7,6.5,0.5,8.8,2.9c1.1,1.2,2.1,2.7,2.5,4.4
									c0.3,0.8,0.4,1.7,0.4,2.6c0,0.2,0,0.4,0,0.6v0.5v1l0.3,8.3c0.1,3-0.3,6.2-1.3,9.2c-2,6-6.3,11.1-11.9,14.2
									c-2.8,1.5-5.8,2.6-9,2.9c-0.8,0.1-1.6,0.2-2.4,0.2h-1.2h-1c-1.4,0-2.8,0-4.2-0.1c-1.7-0.1-3.1-1.5-3-3.2
									C395.7,237.3,397,236,398.7,235.9z"/>
							</g>
						</g>
						<g>
							<g>
								<path class="st131" d="M385.5,241.3l-7.6,7l-1,0.9l-0.5,0.4l-0.2,0.2l-0.3,0.3c-0.8,0.7-1.6,1.3-2.5,1.8
									c-1.8,1-3.8,1.6-5.9,1.8c-4.1,0.4-8.2-1.1-11-3.9c-2.9-2.7-4.4-6.7-4.3-10.5c0-0.7,0.6-1.3,1.4-1.3c0.7,0,1.2,0.6,1.3,1.3
									l0,0c0.2,3.1,1.6,6,4,7.8c2.3,1.9,5.3,2.6,8.1,2.1c1.4-0.3,2.7-0.8,3.8-1.6c0.6-0.4,1.1-0.8,1.6-1.3l0.2-0.2l0.2-0.2
									l0.4-0.5l0.9-1l7-7.6c1.2-1.3,3.2-1.4,4.5-0.2s1.4,3.2,0.2,4.5C385.7,241.1,385.6,241.2,385.5,241.3z"/>
							</g>
							<g>
								<path class="st131" d="M402,236.8l7,7.6l0.9,1l0.4,0.5l0.2,0.2l0.2,0.2c0.5,0.5,1,1,1.6,1.3c1.1,0.8,2.4,1.3,3.8,1.6
									c2.8,0.5,5.8-0.2,8.1-2.1c2.3-1.8,3.8-4.7,4-7.8l0,0c0-0.7,0.7-1.3,1.4-1.3c0.7,0,1.2,0.6,1.3,1.3c0.2,3.8-1.4,7.8-4.3,10.5
									c-2.8,2.8-7,4.2-11,3.9c-2-0.2-4-0.8-5.9-1.8c-0.9-0.5-1.8-1.1-2.5-1.8l-0.3-0.3l-0.2-0.2l-0.5-0.4l-1-0.9l-7.6-7
									c-1.3-1.2-1.4-3.2-0.2-4.5c1.2-1.3,3.2-1.4,4.5-0.2C401.9,236.7,402,236.7,402,236.8z"/>
							</g>
						</g>
						<g>
							<path class="st136" d="M406.6,242.6h-30.1c-2.9,0-5.3-2.4-5.3-5.3l0,0c0-10.3,8.4-18.7,18.7-18.7h3.4
								c10.3,0,18.7,8.4,18.7,18.7l0,0C412,240.2,409.6,242.6,406.6,242.6z"/>
							<g>
								<path class="st137" d="M385.3,236.6h-5.7c-0.8,0-1.5-0.7-1.5-1.5l0,0c0-2.5,2-4.6,4.6-4.6h2c1.1,0,2,0.9,2,2v2.5
									C386.8,236,386.1,236.6,385.3,236.6z"/>
								<path class="st137" d="M397.8,236.6h5.7c0.8,0,1.5-0.7,1.5-1.5l0,0c0-2.5-2-4.6-4.6-4.6h-2c-1.1,0-2,0.9-2,2v2.5
									C396.4,236,397,236.6,397.8,236.6z"/>
							</g>
						</g>
					</g>
				</g>
			</g>
		</g>
	</g>
</g>
</svg>
